<svg width="154" height="154" viewBox="0 0 154 154" fill="none" xmlns="http://www.w3.org/2000/svg">
<g filter="url(#filter0_d_550_204)">
<mask id="mask0_550_204" style="mask-type:luminance" maskUnits="userSpaceOnUse" x="18" y="18" width="114" height="114">
<path d="M131.936 74.8785C131.936 89.8773 125.974 104.262 115.362 114.868C104.75 125.473 90.3567 131.431 75.349 131.431C60.3412 131.431 45.9482 125.473 35.3361 114.868C24.724 104.262 18.7622 89.8773 18.7622 74.8785C18.7622 59.8797 24.724 45.4953 35.3361 34.8895C45.9482 24.2838 60.3412 18.3256 75.349 18.3256C90.3567 18.3256 104.75 24.2838 115.362 34.8895C125.974 45.4953 131.936 59.8797 131.936 74.8785Z" fill="white"/>
</mask>
<g mask="url(#mask0_550_204)">
<path d="M18.7905 131.42L18.7905 93.7227H131.949V131.42H18.7905Z" fill="#27AE60"/>
<path d="M18.7905 93.7228L18.7905 56.0258L131.949 56.0258V93.7228H18.7905Z" fill="white"/>
<path d="M18.7905 56.0258L18.7905 18.3288L131.949 18.3288V56.0258L18.7905 56.0258Z" fill="#F39C12"/>
<path d="M75.3499 91.376C84.4606 91.376 91.8463 83.9947 91.8463 74.8895C91.8463 65.7842 84.4606 58.403 75.3499 58.403C66.2392 58.403 58.8535 65.7842 58.8535 74.8895C58.8535 83.9947 66.2392 91.376 75.3499 91.376Z" fill="#000088"/>
<path d="M75.3494 89.3152C83.3212 89.3152 89.7837 82.8566 89.7837 74.8895C89.7837 66.9224 83.3212 60.4637 75.3494 60.4637C67.3775 60.4637 60.915 66.9224 60.915 74.8895C60.915 82.8566 67.3775 89.3152 75.3494 89.3152Z" fill="white"/>
<path d="M75.3498 77.7744C76.9441 77.7744 78.2366 76.4827 78.2366 74.8893C78.2366 73.2959 76.9441 72.0042 75.3498 72.0042C73.7554 72.0042 72.4629 73.2959 72.4629 74.8893C72.4629 76.4827 73.7554 77.7744 75.3498 77.7744Z" fill="#000088"/>
<path d="M89.5664 77.4873C89.9615 77.5395 90.3242 77.2617 90.3764 76.8668C90.4287 76.4718 90.1507 76.1094 89.7555 76.0572C89.3604 76.005 88.9977 76.2828 88.9455 76.6777C88.8932 77.0726 89.1712 77.4351 89.5664 77.4873Z" fill="#000088"/>
<path d="M75.3499 89.3148L75.8448 80.6594L75.3499 76.5377L74.855 80.6594L75.3499 89.3148Z" fill="#000088"/>
<path d="M88.4095 81.0787C88.7776 81.2313 89.1999 81.0568 89.3527 80.6888C89.5055 80.3208 89.331 79.8988 88.9629 79.7461C88.5948 79.5935 88.1725 79.768 88.0197 80.136C87.8668 80.504 88.0414 80.926 88.4095 81.0787Z" fill="#000088"/>
<path d="M71.6111 88.8244L74.3323 80.5912L74.9227 76.4817L73.3766 80.3352L71.6111 88.8244Z" fill="#000088"/>
<path d="M86.3617 84.2432C86.6778 84.4859 87.1309 84.4264 87.3737 84.1105C87.6166 83.7945 87.5572 83.3417 87.2412 83.0991C86.9252 82.8565 86.4721 82.9159 86.2292 83.2318C85.9864 83.5478 86.0457 84.0006 86.3617 84.2432Z" fill="#000088"/>
<path d="M68.1325 87.382L72.8914 80.1335L74.5251 76.3169L72.0345 79.6391L68.1325 87.382Z" fill="#000088"/>
<path d="M83.563 86.7753C83.8054 87.0914 84.2584 87.1513 84.5748 86.909C84.8913 86.6667 84.9513 86.2139 84.7089 85.8978C84.4665 85.5816 84.0135 85.5218 83.6971 85.7641C83.3807 86.0064 83.3206 86.4591 83.563 86.7753Z" fill="#000088"/>
<path d="M65.1411 85.089L71.6166 79.3187L74.1838 76.0547L70.917 78.6192L65.1411 85.089Z" fill="#000088"/>
<path d="M80.2055 88.4922C80.3578 88.8603 80.7799 89.0354 81.1482 88.8832C81.5165 88.731 81.6915 88.3092 81.5391 87.941C81.3867 87.5729 80.9646 87.3978 80.5964 87.55C80.2281 87.7022 80.0531 88.124 80.2055 88.4922Z" fill="#000088"/>
<path d="M62.8485 82.102L70.596 78.2029L73.9199 75.7137L70.1009 77.346L62.8485 82.102Z" fill="#000088"/>
<path d="M76.5158 89.2869C76.5676 89.6819 76.93 89.9603 77.3251 89.9086C77.7203 89.8569 77.9986 89.4948 77.9468 89.0998C77.895 88.7047 77.5327 88.4264 77.1375 88.4781C76.7424 88.5298 76.464 88.8919 76.5158 89.2869Z" fill="#000088"/>
<path d="M61.404 78.6213L69.8986 76.8603L73.7546 75.3161L69.6424 75.9043L61.404 78.6213Z" fill="#000088"/>
<path d="M72.7483 89.0965C72.6962 89.4914 72.9742 89.8539 73.3694 89.9061C73.7646 89.9583 74.1272 89.6806 74.1794 89.2858C74.2316 88.8909 73.9536 88.5284 73.5584 88.4762C73.1632 88.4239 72.8005 88.7017 72.7483 89.0965Z" fill="#000088"/>
<path d="M60.9148 74.8886L69.575 75.3834L73.6988 74.8902L69.5749 74.396L60.9148 74.8886Z" fill="#000088"/>
<path d="M69.1553 87.9406C69.0026 88.3085 69.1772 88.7306 69.5453 88.8833C69.9135 89.036 70.3358 88.8615 70.4885 88.4936C70.6413 88.1258 70.4667 87.7037 70.0985 87.551C69.7304 87.3983 69.3081 87.5727 69.1553 87.9406Z" fill="#000088"/>
<path d="M61.4051 71.1533L69.6428 73.8728L73.7547 74.4626L69.8991 72.9175L61.4051 71.1533Z" fill="#000088"/>
<path d="M65.9903 85.896C65.7474 86.212 65.8068 86.6649 66.1229 86.9075C66.439 87.1501 66.8921 87.0907 67.135 86.7747C67.3778 86.4587 67.3185 86.0058 67.0024 85.7632C66.6863 85.5206 66.2331 85.58 65.9903 85.896Z" fill="#000088"/>
<path d="M62.8478 67.6765L70.1014 72.4325L73.9209 74.0647L70.5965 71.5755L62.8478 67.6765Z" fill="#000088"/>
<path d="M63.4558 83.0992C63.1394 83.3415 63.0794 83.7943 63.3218 84.1105C63.5642 84.4267 64.0173 84.4865 64.3338 84.2441C64.6502 84.0018 64.7102 83.549 64.4678 83.2328C64.2254 82.9166 63.7723 82.8568 63.4558 83.0992Z" fill="#000088"/>
<path d="M65.1416 64.6857L70.916 71.1576L74.1826 73.723L71.6163 70.4579L65.1416 64.6857Z" fill="#000088"/>
<path d="M61.7374 79.7438C61.369 79.8961 61.1939 80.318 61.3462 80.6861C61.4985 81.0542 61.9207 81.2291 62.289 81.0768C62.6574 80.9245 62.8326 80.5026 62.6802 80.1345C62.5279 79.7664 62.1058 79.5915 61.7374 79.7438Z" fill="#000088"/>
<path d="M68.1313 62.3956L72.0334 70.1391L74.5244 73.4613L72.8908 69.6443L68.1313 62.3956Z" fill="#000088"/>
<path d="M60.9421 76.0556C60.5468 76.1074 60.2684 76.4696 60.3201 76.8645C60.3718 77.2595 60.7342 77.5377 61.1295 77.486C61.5248 77.4342 61.8033 77.072 61.7515 76.677C61.6998 76.2821 61.3374 76.0039 60.9421 76.0556Z" fill="#000088"/>
<path d="M71.6147 60.9522L73.3773 69.4425L74.9226 73.2965L74.3338 69.1864L71.6147 60.9522Z" fill="#000088"/>
<path d="M61.1315 72.2915C60.7364 72.2393 60.3737 72.5173 60.3214 72.9123C60.2691 73.3073 60.5471 73.6697 60.9422 73.7219C61.3374 73.774 61.7001 73.4961 61.7523 73.1011C61.8046 72.7061 61.5266 72.3436 61.1315 72.2915Z" fill="#000088"/>
<path d="M75.3486 60.4624L74.8531 69.1184L75.3478 73.2402L75.843 69.1182L75.3486 60.4624Z" fill="#000088"/>
<path d="M62.2882 68.6999C61.92 68.5473 61.4977 68.7219 61.3449 69.0899C61.1921 69.4579 61.3666 69.8799 61.7348 70.0326C62.1029 70.1852 62.5252 70.0106 62.6781 69.6426C62.8309 69.2746 62.6563 68.8526 62.2882 68.6999Z" fill="#000088"/>
<path d="M79.0865 60.9526L76.3657 69.1865L75.7755 73.2964L77.3215 69.4425L79.0865 60.9526Z" fill="#000088"/>
<path d="M64.3364 65.5352C64.0203 65.2926 63.5672 65.3521 63.3244 65.668C63.0815 65.984 63.1409 66.4368 63.457 66.6795C63.7731 66.9221 64.2262 66.8626 64.469 66.5466C64.7119 66.2307 64.6525 65.7778 64.3364 65.5352Z" fill="#000088"/>
<path d="M82.5664 62.395L77.8076 69.6443L76.174 73.4613L78.6646 70.1387L82.5664 62.395Z" fill="#000088"/>
<path d="M67.1352 63.0026C66.8928 62.6865 66.4397 62.6266 66.1233 62.869C65.8069 63.1114 65.7469 63.5641 65.9893 63.8803C66.2317 64.1965 66.6847 64.2563 67.0012 64.0139C67.3176 63.7716 67.3776 63.3188 67.1352 63.0026Z" fill="#000088"/>
<path d="M85.5591 64.688L79.0835 70.4591L76.5163 73.7235L79.7832 71.1586L85.5591 64.688Z" fill="#000088"/>
<path d="M70.4935 61.2844C70.3411 60.9162 69.919 60.741 69.5506 60.8932C69.1823 61.0454 69.0073 61.4673 69.1596 61.8355C69.312 62.2037 69.7341 62.3788 70.1025 62.2266C70.4708 62.0744 70.6459 61.6526 70.4935 61.2844Z" fill="#000088"/>
<path d="M87.8519 67.6765L80.1033 71.5755L76.7788 74.0648L80.5983 72.4326L87.8519 67.6765Z" fill="#000088"/>
<path d="M74.1841 60.49C74.1323 60.095 73.77 59.8166 73.3747 59.8682C72.9795 59.9199 72.7011 60.2821 72.7529 60.6771C72.8047 61.0722 73.1671 61.3506 73.5623 61.2989C73.9575 61.2472 74.2359 60.8851 74.1841 60.49Z" fill="#000088"/>
<path d="M89.2959 71.1579L80.8002 72.9185L76.9437 74.4626L81.0564 73.8746L89.2959 71.1579Z" fill="#000088"/>
<path d="M77.9511 60.6808C78.0033 60.2859 77.7252 59.9233 77.33 59.8711C76.9348 59.8188 76.572 60.0965 76.5198 60.4914C76.4676 60.8863 76.7457 61.2488 77.1409 61.3011C77.5362 61.3534 77.8989 61.0756 77.9511 60.6808Z" fill="#000088"/>
<path d="M89.7856 74.8912L81.1243 74.3957L77 74.8885L81.1244 75.3831L89.7856 74.8912Z" fill="#000088"/>
<path d="M81.5441 61.837C81.6969 61.4691 81.5223 61.047 81.1541 60.8942C80.7859 60.7414 80.3635 60.9159 80.2107 61.2838C80.0579 61.6517 80.2326 62.0738 80.6008 62.2265C80.9689 62.3793 81.3913 62.2049 81.5441 61.837Z" fill="#000088"/>
<path d="M89.2944 78.6266L81.0559 75.9063L76.9436 75.316L80.7995 76.8616L89.2944 78.6266Z" fill="#000088"/>
<path d="M84.7105 63.8838C84.9533 63.5679 84.8939 63.115 84.5777 62.8723C84.2616 62.6296 83.8085 62.6889 83.5656 63.0048C83.3228 63.3207 83.3823 63.7735 83.6984 64.0163C84.0145 64.259 84.4676 64.1997 84.7105 63.8838Z" fill="#000088"/>
<path d="M87.8507 82.1031L80.5974 77.3464L76.7782 75.7136L80.1025 78.203L87.8507 82.1031Z" fill="#000088"/>
<path d="M87.2439 66.681C87.5603 66.4387 87.6202 65.9859 87.3778 65.6697C87.1353 65.3534 86.6823 65.2934 86.3659 65.5357C86.0495 65.778 85.9895 66.2307 86.232 66.547C86.4744 66.8633 86.9275 66.9232 87.2439 66.681Z" fill="#000088"/>
<path d="M85.5567 85.0938L79.7827 78.6214L76.5165 76.0555L79.0827 79.3207L85.5567 85.0938Z" fill="#000088"/>
<path d="M88.9633 70.0364C89.3316 69.8842 89.5067 69.4623 89.3544 69.0941C89.202 68.726 88.7799 68.5509 88.4116 68.7031C88.0432 68.8554 87.8681 69.2772 88.0205 69.6454C88.1728 70.0135 88.5949 70.1886 88.9633 70.0364Z" fill="#000088"/>
<path d="M82.5678 87.3838L78.6662 79.6401L76.1756 76.3176L77.8091 80.1346L82.5678 87.3838Z" fill="#000088"/>
<path d="M89.7585 73.7246C90.1537 73.6729 90.4322 73.3108 90.3804 72.9158C90.3286 72.5208 89.9663 72.2424 89.5711 72.2941C89.1759 72.3458 88.8974 72.7079 88.9492 73.103C89.0009 73.498 89.3633 73.7763 89.7585 73.7246Z" fill="#000088"/>
<path d="M79.0844 88.8267L77.3222 80.3364L75.7774 76.4822L76.3661 80.5922L79.0844 88.8267Z" fill="#000088"/>
</g>
</g>
<defs>
<filter id="filter0_d_550_204" x="0.790527" y="0.328857" width="153.145" height="153.091" filterUnits="userSpaceOnUse" color-interpolation-filters="sRGB">
<feFlood flood-opacity="0" result="BackgroundImageFix"/>
<feColorMatrix in="SourceAlpha" type="matrix" values="0 0 0 0 0 0 0 0 0 0 0 0 0 0 0 0 0 0 127 0" result="hardAlpha"/>
<feOffset dx="2" dy="2"/>
<feGaussianBlur stdDeviation="10"/>
<feComposite in2="hardAlpha" operator="out"/>
<feColorMatrix type="matrix" values="0 0 0 0 0 0 0 0 0 0 0 0 0 0 0 0 0 0 0.3 0"/>
<feBlend mode="normal" in2="BackgroundImageFix" result="effect1_dropShadow_550_204"/>
<feBlend mode="normal" in="SourceGraphic" in2="effect1_dropShadow_550_204" result="shape"/>
</filter>
</defs>
</svg>
