<svg width="154" height="154" viewBox="0 0 154 154" fill="none" xmlns="http://www.w3.org/2000/svg">
<g filter="url(#filter0_d_550_108)">
<mask id="mask0_550_108" style="mask-type:luminance" maskUnits="userSpaceOnUse" x="18" y="18" width="114" height="114">
<path d="M75.284 131.977C106.531 131.977 131.863 106.662 131.863 75.4328C131.863 44.2041 106.531 18.8882 75.284 18.8882C44.0366 18.8882 18.7056 44.2041 18.7056 75.4328C18.7056 106.662 44.0366 131.977 75.284 131.977Z" fill="white"/>
</mask>
<g mask="url(#mask0_550_108)">
<path d="M18.7056 18.8882H131.863V131.977H18.7056V18.8882Z" fill="#C4282F"/>
</g>
<mask id="mask1_550_108" style="mask-type:luminance" maskUnits="userSpaceOnUse" x="18" y="18" width="114" height="114">
<path d="M75.284 131.977C106.531 131.977 131.863 106.662 131.863 75.4328C131.863 44.2041 106.531 18.8882 75.284 18.8882C44.0366 18.8882 18.7056 44.2041 18.7056 75.4328C18.7056 106.662 44.0366 131.977 75.284 131.977Z" fill="white"/>
</mask>
<g mask="url(#mask1_550_108)">
<path d="M56.4243 18.8882H94.1433V131.977H56.4243V18.8882Z" fill="#025296"/>
</g>
<mask id="mask2_550_108" style="mask-type:luminance" maskUnits="userSpaceOnUse" x="18" y="18" width="114" height="114">
<path d="M75.284 131.977C106.531 131.977 131.863 106.662 131.863 75.4328C131.863 44.2041 106.531 18.8882 75.284 18.8882C44.0366 18.8882 18.7056 44.2041 18.7056 75.4328C18.7056 106.662 44.0366 131.977 75.284 131.977Z" fill="white"/>
</mask>
<g mask="url(#mask2_550_108)">
<path d="M37.6765 64.4505C34.9129 64.4505 32.5379 62.7888 31.4965 60.4106C31.4958 60.4467 31.4951 60.4829 31.4951 60.5192C31.4951 63.9311 34.2627 66.6969 37.6765 66.6969C41.0906 66.6969 43.8581 63.931 43.8581 60.5192C43.8581 60.4829 43.8574 60.4467 43.8567 60.4106C42.8152 62.7888 40.4403 64.4505 37.6765 64.4505Z" fill="#F8CF0C"/>
</g>
<mask id="mask3_550_108" style="mask-type:luminance" maskUnits="userSpaceOnUse" x="18" y="18" width="114" height="114">
<path d="M75.284 131.977C106.531 131.977 131.863 106.662 131.863 75.4328C131.863 44.2041 106.531 18.8882 75.284 18.8882C44.0366 18.8882 18.7056 44.2041 18.7056 75.4328C18.7056 106.662 44.0366 131.977 75.284 131.977Z" fill="white"/>
</mask>
<g mask="url(#mask3_550_108)">
<path d="M37.6763 63.3274C40.1591 63.3274 42.1719 61.3159 42.1719 58.8345C42.1719 56.3531 40.1591 54.3416 37.6763 54.3416C35.1934 54.3416 33.1807 56.3531 33.1807 58.8345C33.1807 61.3159 35.1934 63.3274 37.6763 63.3274Z" fill="#F8CF0C"/>
</g>
<mask id="mask4_550_108" style="mask-type:luminance" maskUnits="userSpaceOnUse" x="18" y="18" width="114" height="114">
<path d="M75.284 131.977C106.531 131.977 131.863 106.662 131.863 75.4328C131.863 44.2041 106.531 18.8882 75.284 18.8882C44.0366 18.8882 18.7056 44.2041 18.7056 75.4328C18.7056 106.662 44.0366 131.977 75.284 131.977Z" fill="white"/>
</mask>
<g mask="url(#mask4_550_108)">
<path d="M34.8667 50.41C34.8667 51.9609 36.1247 53.2181 37.6765 53.2181C39.2283 53.2181 40.4864 51.961 40.4864 50.41C40.4864 49.2868 39.7839 49.1463 39.7839 48.7252C39.7839 48.3039 40.2054 47.7423 39.3625 47.0403C39.7839 47.7423 39.0816 47.8827 39.0816 48.5847C39.0816 49.2868 39.3625 49.2868 39.3625 49.8484" fill="#F8CF0C"/>
</g>
<mask id="mask5_550_108" style="mask-type:luminance" maskUnits="userSpaceOnUse" x="18" y="18" width="114" height="114">
<path d="M75.284 131.977C106.531 131.977 131.863 106.662 131.863 75.4328C131.863 44.2041 106.531 18.8882 75.284 18.8882C44.0366 18.8882 18.7056 44.2041 18.7056 75.4328C18.7056 106.662 44.0366 131.977 75.284 131.977Z" fill="white"/>
</mask>
<g mask="url(#mask5_550_108)">
<path d="M32.057 91.4086H43.2962L37.6764 94.7783L32.057 91.4086ZM32.057 67.8204H43.2962L37.6764 71.1902L32.057 67.8204ZM32.057 88.0388V90.2854H43.2962V88.0388H32.057ZM32.057 72.3134V74.5598H43.2962V72.3134H32.057ZM44.42 67.8204V94.7783H50.0397V67.8204H44.42ZM25.3135 67.8204V94.7783H30.9331V67.8204H25.3135Z" fill="#F8CF0C"/>
</g>
<mask id="mask6_550_108" style="mask-type:luminance" maskUnits="userSpaceOnUse" x="18" y="18" width="114" height="114">
<path d="M75.284 131.977C106.531 131.977 131.863 106.662 131.863 75.4328C131.863 44.2041 106.531 18.8882 75.284 18.8882C44.0366 18.8882 18.7056 44.2041 18.7056 75.4328C18.7056 106.662 44.0366 131.977 75.284 131.977Z" fill="white"/>
</mask>
<g mask="url(#mask6_550_108)">
<path d="M37.6762 75.683C34.5776 75.683 32.0566 78.2025 32.0566 81.2993C32.0566 83.432 33.2523 85.2908 35.0087 86.2415C34.6018 85.6913 34.3607 85.0112 34.3607 84.276C34.3607 82.4488 35.8481 80.9623 37.6762 80.9623C39.1327 80.9623 40.3176 79.7782 40.3176 78.3226C40.3176 76.867 39.1327 75.683 37.6762 75.683ZM37.6762 79.4459C37.0557 79.4459 36.5524 78.9431 36.5524 78.3226C36.5524 77.7024 37.0556 77.1994 37.6762 77.1994C38.2969 77.1994 38.8002 77.7023 38.8002 78.3226C38.8002 78.9431 38.297 79.4459 37.6762 79.4459Z" fill="#F8CF0C"/>
<path d="M40.344 76.3572C40.7511 76.9074 40.992 77.5875 40.992 78.3227C40.992 80.1499 39.5046 81.6364 37.6764 81.6364C36.22 81.6364 35.0352 82.8205 35.0352 84.276C35.0352 85.7315 36.22 86.9158 37.6764 86.9158C40.7752 86.9158 43.2961 84.3962 43.2961 81.2994C43.2961 79.1667 42.1006 77.3079 40.344 76.3572ZM37.6764 85.3992C37.0558 85.3992 36.5525 84.8963 36.5525 84.2759C36.5525 83.6555 37.0557 83.1526 37.6764 83.1526C38.297 83.1526 38.8003 83.6554 38.8003 84.2759C38.8003 84.8963 38.2971 85.3992 37.6764 85.3992Z" fill="#F8CF0C"/>
</g>
</g>
<defs>
<filter id="filter0_d_550_108" x="0.705566" y="0.888184" width="153.157" height="153.089" filterUnits="userSpaceOnUse" color-interpolation-filters="sRGB">
<feFlood flood-opacity="0" result="BackgroundImageFix"/>
<feColorMatrix in="SourceAlpha" type="matrix" values="0 0 0 0 0 0 0 0 0 0 0 0 0 0 0 0 0 0 127 0" result="hardAlpha"/>
<feOffset dx="2" dy="2"/>
<feGaussianBlur stdDeviation="10"/>
<feComposite in2="hardAlpha" operator="out"/>
<feColorMatrix type="matrix" values="0 0 0 0 0 0 0 0 0 0 0 0 0 0 0 0 0 0 0.3 0"/>
<feBlend mode="normal" in2="BackgroundImageFix" result="effect1_dropShadow_550_108"/>
<feBlend mode="normal" in="SourceGraphic" in2="effect1_dropShadow_550_108" result="shape"/>
</filter>
</defs>
</svg>
