<svg width="118" height="118" viewBox="0 0 118 118" fill="none" xmlns="http://www.w3.org/2000/svg">
<circle cx="59" cy="59" r="59" fill="#D9D9D9"/>
<path fill-rule="evenodd" clip-rule="evenodd" d="M58.51 2C89.7197 2 115.02 27.3003 115.02 58.51C115.02 89.7197 89.7197 115.02 58.51 115.02C27.3003 115.02 2 89.7197 2 58.51C2 27.3003 27.3003 2 58.51 2Z" fill="#32AB45"/>
<path fill-rule="evenodd" clip-rule="evenodd" d="M111.46 38.7315H5.55566C13.5729 17.2765 34.2562 2 58.5079 2C82.7592 2 103.443 17.2765 111.46 38.7315Z" fill="#FFE70E"/>
<path fill-rule="evenodd" clip-rule="evenodd" d="M58.2949 115.019C34.1354 114.93 13.5494 99.6805 5.55566 78.288H111.46C103.466 99.6805 82.8806 114.93 58.7208 115.019H58.2949Z" fill="#E92B2B"/>
<path d="M58.5098 24.2003L66.6092 49.6397H92.8195L71.6149 65.3621L79.7145 90.8014L58.5098 75.079L37.3052 90.8014L45.4048 65.3621L24.2002 49.6397H50.4105L58.5098 24.2003Z" fill="#FBFBFB"/>
</svg>
