<svg width="153" height="153" viewBox="0 0 153 153" fill="none" xmlns="http://www.w3.org/2000/svg">
<g filter="url(#filter0_d_1500_2319)">
<path fill-rule="evenodd" clip-rule="evenodd" d="M74.5 18C105.704 18 131 43.2959 131 74.5C131 105.704 105.704 131 74.5 131C43.2959 131 18 105.704 18 74.5C18 43.2959 43.2959 18 74.5 18Z" fill="#32AB45"/>
<path fill-rule="evenodd" clip-rule="evenodd" d="M127.441 54.725H21.5552C29.571 33.2738 50.2507 18 74.498 18C98.7451 18 119.425 33.2738 127.441 54.725Z" fill="#FFE70E"/>
<path fill-rule="evenodd" clip-rule="evenodd" d="M74.2851 130.999C50.1299 130.91 29.5475 115.663 21.5552 94.2744H127.441C119.449 115.663 98.8664 130.91 74.7109 130.999H74.2851Z" fill="#E92B2B"/>
<path d="M74.4999 40.1964L82.5978 65.6312H108.803L87.6026 81.3509L95.7007 106.786L74.4999 91.0661L53.299 106.786L61.3972 81.3509L40.1963 65.6312H66.402L74.4999 40.1964Z" fill="#FBFBFB"/>
</g>
<defs>
<filter id="filter0_d_1500_2319" x="0" y="0" width="153" height="153" filterUnits="userSpaceOnUse" color-interpolation-filters="sRGB">
<feFlood flood-opacity="0" result="BackgroundImageFix"/>
<feColorMatrix in="SourceAlpha" type="matrix" values="0 0 0 0 0 0 0 0 0 0 0 0 0 0 0 0 0 0 127 0" result="hardAlpha"/>
<feOffset dx="2" dy="2"/>
<feGaussianBlur stdDeviation="10"/>
<feComposite in2="hardAlpha" operator="out"/>
<feColorMatrix type="matrix" values="0 0 0 0 0 0 0 0 0 0 0 0 0 0 0 0 0 0 0.3 0"/>
<feBlend mode="normal" in2="BackgroundImageFix" result="effect1_dropShadow_1500_2319"/>
<feBlend mode="normal" in="SourceGraphic" in2="effect1_dropShadow_1500_2319" result="shape"/>
</filter>
</defs>
</svg>
