<svg width="118" height="118" viewBox="0 0 118 118" fill="none" xmlns="http://www.w3.org/2000/svg">
<circle cx="59" cy="59" r="59" fill="#D9D9D9"/>
<mask id="mask0_163_2" style="mask-type:luminance" maskUnits="userSpaceOnUse" x="2" y="2" width="114" height="114">
<path d="M58.51 115.02C89.7196 115.02 115.02 89.7196 115.02 58.51C115.02 27.3004 89.7196 2 58.51 2C27.3004 2 2 27.3004 2 58.51C2 89.7196 27.3004 115.02 58.51 115.02Z" fill="white"/>
</mask>
<g mask="url(#mask0_163_2)">
<path d="M2 2H115.02V115.02H2V2Z" fill="white"/>
</g>
<mask id="mask1_163_2" style="mask-type:luminance" maskUnits="userSpaceOnUse" x="2" y="2" width="114" height="114">
<path d="M58.51 115.02C89.7196 115.02 115.02 89.7196 115.02 58.51C115.02 27.3004 89.7196 2 58.51 2C27.3004 2 2 27.3004 2 58.51C2 89.7196 27.3004 115.02 58.51 115.02Z" fill="white"/>
</mask>
<g mask="url(#mask1_163_2)">
<path d="M102.559 115.02H13.2355V1.77399L106.135 59.9502H47.4901L102.559 115.02Z" fill="#003893"/>
</g>
<mask id="mask2_163_2" style="mask-type:luminance" maskUnits="userSpaceOnUse" x="2" y="2" width="114" height="114">
<path d="M58.51 115.02C89.7196 115.02 115.02 89.7196 115.02 58.51C115.02 27.3004 89.7196 2 58.51 2C27.3004 2 2 27.3004 2 58.51C2 89.7196 27.3004 115.02 58.51 115.02Z" fill="white"/>
</mask>
<g mask="url(#mask2_163_2)">
<path d="M94.467 56.5985L16.587 7.82776H2V115.02H94.467V111.668L39.3976 56.5985H94.467Z" fill="#DC143C"/>
</g>
<mask id="mask3_163_2" style="mask-type:luminance" maskUnits="userSpaceOnUse" x="2" y="2" width="114" height="114">
<path d="M58.51 115.02C89.7196 115.02 115.02 89.7196 115.02 58.51C115.02 27.3004 89.7196 2 58.51 2C27.3004 2 2 27.3004 2 58.51C2 89.7196 27.3004 115.02 58.51 115.02Z" fill="white"/>
</mask>
<g mask="url(#mask3_163_2)">
<path d="M44.6491 46.555L43.2759 45.5275L45.8895 43.5717L42.7273 42.7654C42.7272 42.765 42.727 42.7644 42.7267 42.7639L44.3924 39.9586L41.1615 40.4234L41.1621 40.4242C41.1615 40.4237 41.1612 40.4233 41.1605 40.4228L41.1614 40.4234L41.6269 37.1926L38.8204 38.8585C38.8201 38.8585 38.8198 38.8583 38.8193 38.8582L38.013 35.6956L36.0573 38.3097L34.1016 35.6956L33.2953 38.8581C33.2949 38.8582 33.2945 38.8584 33.2941 38.8585L30.4877 37.1926L30.9531 40.4234H30.9532C30.9532 40.4234 30.9531 40.4234 30.9531 40.4235L27.7216 39.9588L29.3877 42.7648C29.3876 42.765 29.3874 42.7652 29.3874 42.7655L26.2252 43.5719L28.8388 45.5277L27.4656 46.5552C24.5029 44.8004 22.0166 42.052 20.5457 38.3099C20.5457 46.8767 27.4905 53.8216 36.0573 53.8216C44.6241 53.8216 51.5688 46.8768 51.5688 38.3099C50.0981 42.0517 47.6117 44.8002 44.6491 46.555Z" fill="white"/>
</g>
<mask id="mask4_163_2" style="mask-type:luminance" maskUnits="userSpaceOnUse" x="2" y="2" width="114" height="114">
<path d="M58.51 115.02C89.7196 115.02 115.02 89.7196 115.02 58.51C115.02 27.3004 89.7196 2 58.51 2C27.3004 2 2 27.3004 2 58.51C2 89.7196 27.3004 115.02 58.51 115.02Z" fill="white"/>
</mask>
<g mask="url(#mask4_163_2)">
<path d="M43.5316 91.6073L50.4911 92.4663L46.2678 86.8696V86.8691L52.7235 84.1333L46.2678 81.3974V81.3968L50.4911 75.8001L43.5316 76.6593L43.5314 76.6591L44.3904 69.6996L38.7932 73.9229L38.7926 73.9226L36.0574 67.4664L33.3215 73.9229L33.321 73.923L27.7243 69.6996L28.5828 76.6593L28.5835 76.6589L28.5826 76.6599L28.5828 76.6593L21.6237 75.8001L25.8468 81.3964L25.8465 81.3976L19.3906 84.1333L25.8465 86.8688L25.8468 86.87L21.6237 92.4663L28.5828 91.6073L28.5826 91.6066L28.5835 91.6076L28.5828 91.6073L27.7243 98.5671L33.321 94.3435L33.3215 94.3436L36.0574 100.799L38.7926 94.3439L38.7932 94.3436L44.3904 98.5671L43.5314 91.6074L43.5316 91.6073Z" fill="white"/>
</g>
<mask id="mask5_163_2" style="mask-type:luminance" maskUnits="userSpaceOnUse" x="2" y="2" width="114" height="114">
<path d="M58.51 115.02C89.7196 115.02 115.02 89.7196 115.02 58.51C115.02 27.3004 89.7196 2 58.51 2C27.3004 2 2 27.3004 2 58.51C2 89.7196 27.3004 115.02 58.51 115.02Z" fill="white"/>
</mask>
<g mask="url(#mask5_163_2)">
<path d="M88.5365 102.335C79.68 108.415 69.297 111.629 58.51 111.629C51.3374 111.629 44.3813 110.225 37.8346 107.456C31.5095 104.781 25.8285 100.951 20.9489 96.0711C16.0694 91.1917 12.2389 85.5105 9.56364 79.1855C6.79453 72.6389 5.3906 65.6826 5.3906 58.51C5.3906 54.0119 5.95321 49.5446 7.06273 45.2322C8.13936 41.0476 9.73317 36.9969 11.7999 33.1925C15.8636 25.7118 21.7465 19.2344 28.8128 14.4606L26.9147 11.6511C11.8829 21.8062 2 39.004 2 58.51C2 89.7197 27.3003 115.02 58.51 115.02C70.3655 115.02 81.3683 111.369 90.4554 105.13L88.5365 102.335Z" fill="#003893"/>
</g>
</svg>
