<svg width="154" height="154" viewBox="0 0 154 154" fill="none" xmlns="http://www.w3.org/2000/svg">
<g filter="url(#filter0_d_550_142)">
<mask id="mask0_550_142" style="mask-type:luminance" maskUnits="userSpaceOnUse" x="18" y="18" width="114" height="114">
<path d="M131.737 74.9C131.737 89.9044 125.775 104.294 115.163 114.904C104.551 125.514 90.158 131.474 75.1503 131.474C60.1425 131.474 45.7495 125.514 35.1374 114.904C24.5253 104.294 18.5635 89.9044 18.5635 74.9C18.5635 59.8955 24.5253 45.5056 35.1374 34.8958C45.7495 24.2861 60.1425 18.3256 75.1503 18.3256C90.158 18.3256 104.551 24.2861 115.163 34.8958C125.775 45.5056 131.737 59.8955 131.737 74.9Z" fill="white"/>
</mask>
<g mask="url(#mask0_550_142)">
<path d="M18.5137 18.3237H131.724V74.8952H18.5137V18.3237Z" fill="#2B4896"/>
<path d="M18.5137 74.8953H131.724V131.467H18.5137V74.8953Z" fill="#E32D3C"/>
<path d="M18.5137 131.467H19.1549L35.2226 115.356L75.119 75.3501V75.0841L18.5137 18.3241V131.467Z" fill="white"/>
</g>
<path d="M41.5038 80.0374C44.3456 80.0374 46.6493 77.7351 46.6493 74.895C46.6493 72.055 44.3456 69.7527 41.5038 69.7527C38.6621 69.7527 36.3584 72.055 36.3584 74.895C36.3584 77.7351 38.6621 80.0374 41.5038 80.0374Z" fill="#FCD116"/>
<path d="M30.6406 74.8953L31.3088 75.5631L41.5032 74.8953L31.3088 74.2275L30.6406 74.8953Z" fill="#FCD116"/>
<path d="M31.7842 76.1742L32.3294 76.7191L41.5033 74.8954L31.7842 76.1742Z" fill="#FCD116"/>
<path d="M31.7842 73.6166L32.3294 73.0717L41.5033 74.8954L31.7842 73.6166Z" fill="#FCD116"/>
<path d="M33.823 67.2199L33.823 68.1642L41.5028 74.8952L34.7678 67.2199L33.823 67.2199Z" fill="#FCD116"/>
<path d="M33.7267 68.932L33.7267 69.7026L41.5027 74.8952L33.7267 68.932Z" fill="#FCD116"/>
<path d="M35.536 67.1239L36.307 67.1239L41.5027 74.8952L35.536 67.1239Z" fill="#FCD116"/>
<path d="M41.5032 64.0391L40.835 64.7068L41.5032 74.8951L42.1714 64.7068L41.5032 64.0391Z" fill="#FCD116"/>
<path d="M40.2239 65.1818L39.6786 65.7267L41.5034 74.895L40.2239 65.1818Z" fill="#FCD116"/>
<path d="M42.783 65.1818L43.3282 65.7267L41.5034 74.895L42.783 65.1818Z" fill="#FCD116"/>
<path d="M49.1834 67.2199L48.2386 67.2199L41.5035 74.8951L49.1834 68.1641L49.1834 67.2199Z" fill="#FCD116"/>
<path d="M47.4704 67.1237L46.6994 67.1237L41.5036 74.8951L47.4704 67.1237Z" fill="#FCD116"/>
<path d="M49.2796 68.9319L49.2796 69.7024L41.5036 74.8951L49.2796 68.9319Z" fill="#FCD116"/>
<path d="M52.3662 74.8951L51.698 74.2273L41.5036 74.8951L51.698 75.5629L52.3662 74.8951Z" fill="#FCD116"/>
<path d="M51.2227 73.6164L50.6774 73.0714L41.5036 74.8951L51.2227 73.6164Z" fill="#FCD116"/>
<path d="M51.2227 76.1739L50.6774 76.7188L41.5036 74.8951L51.2227 76.1739Z" fill="#FCD116"/>
<path d="M49.1838 82.5705L49.1838 81.6262L41.504 74.8952L48.239 82.5705L49.1838 82.5705Z" fill="#FCD116"/>
<path d="M49.2796 80.8584L49.2796 80.0878L41.5036 74.8952L49.2796 80.8584Z" fill="#FCD116"/>
<path d="M47.4704 82.6665L46.6994 82.6665L41.5036 74.8952L47.4704 82.6665Z" fill="#FCD116"/>
<path d="M41.5036 85.7511L42.1718 85.0833L41.5036 74.895L40.8354 85.0833L41.5036 85.7511Z" fill="#FCD116"/>
<path d="M42.783 84.6084L43.3282 84.0635L41.5034 74.8951L42.783 84.6084Z" fill="#FCD116"/>
<path d="M40.2239 84.6084L39.6786 84.0635L41.5034 74.8951L40.2239 84.6084Z" fill="#FCD116"/>
<path d="M33.824 82.5705L34.7688 82.5705L41.5038 74.8953L33.824 81.6263L33.824 82.5705Z" fill="#FCD116"/>
<path d="M35.537 82.6665L36.3079 82.6665L41.5037 74.8952L35.537 82.6665Z" fill="#FCD116"/>
<path d="M33.7277 80.8584L33.7277 80.0878L41.5037 74.8952L33.7277 80.8584Z" fill="#FCD116"/>
<path d="M64.9114 74.895L62.9779 75.5667L62.9362 77.6121L61.6995 75.9818L59.7402 76.5742L60.9094 74.895H64.9114Z" fill="#FCD116"/>
<path d="M64.9114 74.895L62.9779 74.2233L62.9362 72.178L61.6995 73.8082L59.7402 73.2158L60.9094 74.895H64.9114Z" fill="#FCD116"/>
<path d="M28.0674 96.153L28.4523 94.1437L26.7011 93.0852L28.7319 92.8297L29.1985 90.8377L30.0686 92.6891L28.0674 96.153Z" fill="#FCD116"/>
<path d="M28.0678 96.1533L29.6167 94.8155L31.4096 95.8018L30.6156 93.9165L32.1087 92.5168L30.0691 92.6894L28.0678 96.1533Z" fill="#FCD116"/>
<path d="M28.0683 53.6368L29.6172 54.9746L31.4101 53.9882L30.6161 55.8735L32.1091 57.2733L30.0696 57.1007L28.0683 53.6368Z" fill="#FCD116"/>
<path d="M28.0678 53.6371L28.4528 55.6465L26.7016 56.705L28.7324 56.9605L29.199 58.9525L30.0691 57.101L28.0678 53.6371Z" fill="#FCD116"/>
</g>
<defs>
<filter id="filter0_d_550_142" x="0.563477" y="0.325562" width="153.161" height="153.141" filterUnits="userSpaceOnUse" color-interpolation-filters="sRGB">
<feFlood flood-opacity="0" result="BackgroundImageFix"/>
<feColorMatrix in="SourceAlpha" type="matrix" values="0 0 0 0 0 0 0 0 0 0 0 0 0 0 0 0 0 0 127 0" result="hardAlpha"/>
<feOffset dx="2" dy="2"/>
<feGaussianBlur stdDeviation="10"/>
<feComposite in2="hardAlpha" operator="out"/>
<feColorMatrix type="matrix" values="0 0 0 0 0 0 0 0 0 0 0 0 0 0 0 0 0 0 0.3 0"/>
<feBlend mode="normal" in2="BackgroundImageFix" result="effect1_dropShadow_550_142"/>
<feBlend mode="normal" in="SourceGraphic" in2="effect1_dropShadow_550_142" result="shape"/>
</filter>
</defs>
</svg>
