<svg width="154" height="154" viewBox="0 0 154 154" fill="none" xmlns="http://www.w3.org/2000/svg">
<g filter="url(#filter0_d_550_325)">
<mask id="mask0_550_325" style="mask-type:luminance" maskUnits="userSpaceOnUse" x="18" y="18" width="114" height="114">
<path d="M74.8912 131.997C106.144 131.997 131.48 106.677 131.48 75.4428C131.48 44.2086 106.144 18.8882 74.8912 18.8882C43.6383 18.8882 18.3027 44.2086 18.3027 75.4428C18.3027 106.677 43.6383 131.997 74.8912 131.997Z" fill="white"/>
</mask>
<g mask="url(#mask0_550_325)">
<path d="M18.3027 24.1958H239.346V131.997H18.3027V24.1958Z" fill="#1EB53A"/>
</g>
<mask id="mask1_550_325" style="mask-type:luminance" maskUnits="userSpaceOnUse" x="18" y="18" width="114" height="114">
<path d="M74.8912 131.997C106.144 131.997 131.48 106.677 131.48 75.4428C131.48 44.2086 106.144 18.8882 74.8912 18.8882C43.6383 18.8882 18.3027 44.2086 18.3027 75.4428C18.3027 106.677 43.6383 131.997 74.8912 131.997Z" fill="white"/>
</mask>
<g mask="url(#mask1_550_325)">
<path d="M18.3027 18.8882H239.346V78.0967H18.3027V18.8882Z" fill="#0099B5"/>
</g>
<mask id="mask2_550_325" style="mask-type:luminance" maskUnits="userSpaceOnUse" x="18" y="18" width="114" height="114">
<path d="M74.8912 131.997C106.144 131.997 131.48 106.677 131.48 75.4428C131.48 44.2086 106.144 18.8882 74.8912 18.8882C43.6383 18.8882 18.3027 44.2086 18.3027 75.4428C18.3027 106.677 43.6383 131.997 74.8912 131.997Z" fill="white"/>
</mask>
<g mask="url(#mask2_550_325)">
<path d="M18.3027 58.6924H239.346V97.5009H18.3027V58.6924Z" fill="#CE1126"/>
</g>
<mask id="mask3_550_325" style="mask-type:luminance" maskUnits="userSpaceOnUse" x="18" y="18" width="114" height="114">
<path d="M74.8912 131.997C106.144 131.997 131.48 106.677 131.48 75.4428C131.48 44.2086 106.144 18.8882 74.8912 18.8882C43.6383 18.8882 18.3027 44.2086 18.3027 75.4428C18.3027 106.677 43.6383 131.997 74.8912 131.997Z" fill="white"/>
</mask>
<g mask="url(#mask3_550_325)">
<path d="M18.3027 60.8484H239.346V95.3449H18.3027V60.8484Z" fill="white"/>
</g>
<mask id="mask4_550_325" style="mask-type:luminance" maskUnits="userSpaceOnUse" x="18" y="18" width="114" height="114">
<path d="M74.8912 131.997C106.144 131.997 131.48 106.677 131.48 75.4428C131.48 44.2086 106.144 18.8882 74.8912 18.8882C43.6383 18.8882 18.3027 44.2086 18.3027 75.4428C18.3027 106.677 43.6383 131.997 74.8912 131.997Z" fill="white"/>
</mask>
<g mask="url(#mask4_550_325)">
<path d="M45.1868 41.4441C45.1868 35.0352 49.8525 29.7173 55.9734 28.6904C55.2713 28.5725 54.5517 28.5079 53.816 28.5079C46.6677 28.5079 40.8721 34.3002 40.8721 41.4441C40.8721 48.5881 46.6677 54.3803 53.816 54.3803C54.5515 54.3803 55.2712 54.3159 55.9734 54.198C49.8525 53.171 45.1868 47.853 45.1868 41.4441Z" fill="white"/>
</g>
<mask id="mask5_550_325" style="mask-type:luminance" maskUnits="userSpaceOnUse" x="18" y="18" width="114" height="114">
<path d="M74.8912 131.997C106.144 131.997 131.48 106.677 131.48 75.4428C131.48 44.2086 106.144 18.8882 74.8912 18.8882C43.6383 18.8882 18.3027 44.2086 18.3027 75.4428C18.3027 106.677 43.6383 131.997 74.8912 131.997Z" fill="white"/>
</mask>
<g mask="url(#mask5_550_325)">
<path d="M82.8745 50.9925L82.293 49.2047L81.7114 50.9925H79.8301L81.3522 52.099L80.7717 53.8855L82.2927 52.7815L83.8142 53.8855L83.2324 52.0982L84.7535 50.9925H82.8745Z" fill="white"/>
</g>
<mask id="mask6_550_325" style="mask-type:luminance" maskUnits="userSpaceOnUse" x="18" y="18" width="114" height="114">
<path d="M74.8912 131.997C106.144 131.997 131.48 106.677 131.48 75.4428C131.48 44.2086 106.144 18.8882 74.8912 18.8882C43.6383 18.8882 18.3027 44.2086 18.3027 75.4428C18.3027 106.677 43.6383 131.997 74.8912 131.997Z" fill="white"/>
</mask>
<g mask="url(#mask6_550_325)">
<path d="M82.293 38.8564L81.7114 40.6443H79.8301L81.3516 41.7499L80.7717 43.5369L82.2927 42.4326L83.8142 43.5369L83.233 41.7494L84.7535 40.6443H82.8745L82.293 38.8564Z" fill="white"/>
</g>
<mask id="mask7_550_325" style="mask-type:luminance" maskUnits="userSpaceOnUse" x="18" y="18" width="114" height="114">
<path d="M74.8912 131.997C106.144 131.997 131.48 106.677 131.48 75.4428C131.48 44.2086 106.144 18.8882 74.8912 18.8882C43.6383 18.8882 18.3027 44.2086 18.3027 75.4428C18.3027 106.677 43.6383 131.997 74.8912 131.997Z" fill="white"/>
</mask>
<g mask="url(#mask7_550_325)">
<path d="M82.293 28.5079L81.7116 30.2953H79.8301L81.3519 31.4005L80.7717 33.1887L82.2927 32.0842L83.8142 33.1887L83.2324 31.3999L84.7535 30.2953H82.8745L82.293 28.5079Z" fill="white"/>
</g>
<mask id="mask8_550_325" style="mask-type:luminance" maskUnits="userSpaceOnUse" x="18" y="18" width="114" height="114">
<path d="M74.8912 131.997C106.144 131.997 131.48 106.677 131.48 75.4428C131.48 44.2086 106.144 18.8882 74.8912 18.8882C43.6383 18.8882 18.3027 44.2086 18.3027 75.4428C18.3027 106.677 43.6383 131.997 74.8912 131.997Z" fill="white"/>
</mask>
<g mask="url(#mask8_550_325)">
<path d="M93.2292 50.9925L92.6482 49.2047L92.0669 50.9925H90.1855L91.7071 52.099L91.1272 53.8855L92.6482 52.7815L94.1688 53.8855L93.5889 52.099L95.1106 50.9925H93.2292Z" fill="white"/>
</g>
<mask id="mask9_550_325" style="mask-type:luminance" maskUnits="userSpaceOnUse" x="18" y="18" width="114" height="114">
<path d="M74.8912 131.997C106.144 131.997 131.48 106.677 131.48 75.4428C131.48 44.2086 106.144 18.8882 74.8912 18.8882C43.6383 18.8882 18.3027 44.2086 18.3027 75.4428C18.3027 106.677 43.6383 131.997 74.8912 131.997Z" fill="white"/>
</mask>
<g mask="url(#mask9_550_325)">
<path d="M92.6482 38.8564L92.0669 40.6443H90.1855L91.7065 41.7502L91.1272 43.5369L92.6482 42.4326L94.1688 43.5369L93.5895 41.7502L95.1106 40.6443H93.2292L92.6482 38.8564Z" fill="white"/>
</g>
<mask id="mask10_550_325" style="mask-type:luminance" maskUnits="userSpaceOnUse" x="18" y="18" width="114" height="114">
<path d="M74.8912 131.997C106.144 131.997 131.48 106.677 131.48 75.4428C131.48 44.2086 106.144 18.8882 74.8912 18.8882C43.6383 18.8882 18.3027 44.2086 18.3027 75.4428C18.3027 106.677 43.6383 131.997 74.8912 131.997Z" fill="white"/>
</mask>
<g mask="url(#mask10_550_325)">
<path d="M92.6482 28.5079L92.0669 30.2953H90.1855L91.7071 31.4005L91.1272 33.1887L92.6482 32.0842L94.1688 33.1887L93.5889 31.4005L95.1106 30.2953H93.2292L92.6482 28.5079Z" fill="white"/>
</g>
<mask id="mask11_550_325" style="mask-type:luminance" maskUnits="userSpaceOnUse" x="18" y="18" width="114" height="114">
<path d="M74.8912 131.997C106.144 131.997 131.48 106.677 131.48 75.4428C131.48 44.2086 106.144 18.8882 74.8912 18.8882C43.6383 18.8882 18.3027 44.2086 18.3027 75.4428C18.3027 106.677 43.6383 131.997 74.8912 131.997Z" fill="white"/>
</mask>
<g mask="url(#mask11_550_325)">
<path d="M103.585 50.9925L103.003 49.2047L102.421 50.9925H100.542L102.063 52.0982L101.482 53.8855L103.003 52.7815L104.524 53.8855L103.944 52.099L105.466 50.9925H103.585Z" fill="white"/>
</g>
<mask id="mask12_550_325" style="mask-type:luminance" maskUnits="userSpaceOnUse" x="18" y="18" width="114" height="114">
<path d="M74.8912 131.997C106.144 131.997 131.48 106.677 131.48 75.4428C131.48 44.2086 106.144 18.8882 74.8912 18.8882C43.6383 18.8882 18.3027 44.2086 18.3027 75.4428C18.3027 106.677 43.6383 131.997 74.8912 131.997Z" fill="white"/>
</mask>
<g mask="url(#mask12_550_325)">
<path d="M103.003 38.8564L102.421 40.6443H100.542L102.063 41.7494L101.482 43.5369L103.003 42.4326L104.524 43.5369L103.944 41.7499L105.466 40.6443H103.585L103.003 38.8564Z" fill="white"/>
</g>
<mask id="mask13_550_325" style="mask-type:luminance" maskUnits="userSpaceOnUse" x="18" y="18" width="114" height="114">
<path d="M74.8912 131.997C106.144 131.997 131.48 106.677 131.48 75.4428C131.48 44.2086 106.144 18.8882 74.8912 18.8882C43.6383 18.8882 18.3027 44.2086 18.3027 75.4428C18.3027 106.677 43.6383 131.997 74.8912 131.997Z" fill="white"/>
</mask>
<g mask="url(#mask13_550_325)">
<path d="M102.063 31.3999L101.482 33.1887L103.003 32.0842L104.524 33.1887L103.944 31.4005L105.466 30.2953H103.584L103.003 28.5079L102.421 30.2953H100.542L102.063 31.3999Z" fill="white"/>
</g>
<mask id="mask14_550_325" style="mask-type:luminance" maskUnits="userSpaceOnUse" x="18" y="18" width="114" height="114">
<path d="M74.8912 131.997C106.144 131.997 131.48 106.677 131.48 75.4428C131.48 44.2086 106.144 18.8882 74.8912 18.8882C43.6383 18.8882 18.3027 44.2086 18.3027 75.4428C18.3027 106.677 43.6383 131.997 74.8912 131.997Z" fill="white"/>
</mask>
<g mask="url(#mask14_550_325)">
<path d="M62.1633 50.9925L61.5814 49.2047L61.0019 50.9925H59.1211L60.6424 52.0982L60.0607 53.8855L61.5828 52.7807L63.1051 53.8855L62.523 52.0985L64.0445 50.9925H62.1633Z" fill="white"/>
</g>
<mask id="mask15_550_325" style="mask-type:luminance" maskUnits="userSpaceOnUse" x="18" y="18" width="114" height="114">
<path d="M74.8912 131.997C106.144 131.997 131.48 106.677 131.48 75.4428C131.48 44.2086 106.144 18.8882 74.8912 18.8882C43.6383 18.8882 18.3027 44.2086 18.3027 75.4428C18.3027 106.677 43.6383 131.997 74.8912 131.997Z" fill="white"/>
</mask>
<g mask="url(#mask15_550_325)">
<path d="M72.5183 50.9925L71.9387 49.2047L71.3569 50.9925H69.4756L70.9973 52.0985L70.415 53.8855L71.9373 52.7807L73.4595 53.8855L72.8777 52.0982L74.3991 50.9925H72.5183Z" fill="white"/>
</g>
<mask id="mask16_550_325" style="mask-type:luminance" maskUnits="userSpaceOnUse" x="18" y="18" width="114" height="114">
<path d="M74.8912 131.997C106.144 131.997 131.48 106.677 131.48 75.4428C131.48 44.2086 106.144 18.8882 74.8912 18.8882C43.6383 18.8882 18.3027 44.2086 18.3027 75.4428C18.3027 106.677 43.6383 131.997 74.8912 131.997Z" fill="white"/>
</mask>
<g mask="url(#mask16_550_325)">
<path d="M71.9387 38.8564L71.3569 40.6443H69.4756L70.9967 41.7497L70.415 43.5369L71.9373 42.4318L73.4595 43.5369L72.8783 41.7494L74.3991 40.6443H72.5183L71.9387 38.8564Z" fill="white"/>
</g>
</g>
<defs>
<filter id="filter0_d_550_325" x="0.302734" y="0.888184" width="153.177" height="153.109" filterUnits="userSpaceOnUse" color-interpolation-filters="sRGB">
<feFlood flood-opacity="0" result="BackgroundImageFix"/>
<feColorMatrix in="SourceAlpha" type="matrix" values="0 0 0 0 0 0 0 0 0 0 0 0 0 0 0 0 0 0 127 0" result="hardAlpha"/>
<feOffset dx="2" dy="2"/>
<feGaussianBlur stdDeviation="10"/>
<feComposite in2="hardAlpha" operator="out"/>
<feColorMatrix type="matrix" values="0 0 0 0 0 0 0 0 0 0 0 0 0 0 0 0 0 0 0.3 0"/>
<feBlend mode="normal" in2="BackgroundImageFix" result="effect1_dropShadow_550_325"/>
<feBlend mode="normal" in="SourceGraphic" in2="effect1_dropShadow_550_325" result="shape"/>
</filter>
</defs>
</svg>
