<svg width="60" height="130" viewBox="0 0 60 130" fill="none" xmlns="http://www.w3.org/2000/svg">
<path d="M60 9.44062V97.9726C60 103.178 55.7643 107.413 50.5594 107.413H9.44056C4.23567 107.413 0 103.178 0 97.9726V9.44062C0 4.23569 4.23567 0 9.44056 0H50.5594C55.7643 0 60 4.23569 60 9.44062Z" fill="white"/>
<path d="M60 9.44086V97.9729C60 103.178 55.7643 107.413 50.5594 107.413H30V0.000244141H50.5594C55.7643 0.000244141 60 4.23593 60 9.44086Z" fill="#F2F2F2"/>
<path d="M50.5594 0H9.44056C4.23567 0 0 4.23569 0 9.44062V97.9726C0 103.178 4.23567 107.413 9.44056 107.413H50.5594C55.7643 107.413 60 103.178 60 97.9726V9.44062C60 4.23569 55.7643 0 50.5594 0ZM53.7063 87.483H6.29371V9.44062C6.29371 7.70564 7.7056 6.29374 9.44056 6.29374H50.5594C52.2944 6.29374 53.7063 7.70564 53.7063 9.44062V87.483Z" fill="#FF5252"/>
<path d="M60 9.44086V97.9729C60 103.178 55.7643 107.413 50.5594 107.413H30V87.4833H53.7063V9.44086C53.7063 7.70588 52.2944 6.29399 50.5594 6.29399H30V0.000244141H50.5594C55.7643 0.000244141 60 4.23593 60 9.44086Z" fill="#D42F2F"/>
<path d="M15.356 54.6963C8.99975 54.6963 3.82861 59.849 3.82861 66.1824C3.82861 72.516 8.99975 77.6687 15.3559 77.6687H30.0171L32.2705 65.296L30.0171 54.6963H15.356Z" fill="#2EE66B"/>
<path d="M44.7803 54.6963H30.0825V77.6687H44.7803C51.1525 77.6687 56.3366 72.516 56.3366 66.1824C56.3367 59.849 51.1526 54.6963 44.7803 54.6963Z" fill="#24B383"/>
<path d="M30.1793 64.541C26.4506 64.541 23.4278 67.5638 23.4278 71.2925V102.418L20.8457 99.5795C16.3511 94.6389 8.49192 94.9303 4.37549 100.19L18.2112 121.186V129.934H30.1825L35.9186 106.951C35.9186 106.951 30.1796 64.541 30.1793 64.541Z" fill="#FFE2D2"/>
<path d="M58.5833 105.356C58.5833 99.5994 55.1062 94.413 49.7808 92.2267L36.9314 86.9948V71.2925C36.9314 67.5648 33.9103 64.5429 30.1831 64.541V129.934H52.054L51.8352 125.56L58.5832 114.625V105.356H58.5833Z" fill="#FFC9B2"/>
</svg>
