<svg width="107" height="107" viewBox="0 0 107 107" fill="none" xmlns="http://www.w3.org/2000/svg">
<path d="M32.7878 8.24861C28.288 14.3401 28.1642 21.4698 29.6731 29.3815C31.8417 40.7085 34.0263 51.7023 34.6887 62.9041L49.3204 66.4071L54.336 33.2285L49.3204 0C42.86 0 36.6797 3.08356 32.7878 8.24861Z" fill="#FF5252"/>
<path d="M68.6363 31.1115C69.949 24.3552 71.3891 15.8389 65.8531 8.24861C61.9614 3.08356 55.7809 0 49.3203 0V66.4071L63.9519 62.9043C64.5864 52.2432 66.5634 41.9239 68.6363 31.1115Z" fill="#D42F2F"/>
<path d="M34.6885 62.9043C34.9842 67.0388 34.8864 73.7174 34.9002 77.9462H49.3201L52.8728 70.4277L49.3201 62.9043H34.6885Z" fill="#FF712F"/>
<path d="M63.7402 69.8248C63.7402 67.4965 63.8159 65.1927 63.9519 62.9043H49.3203V77.9462H63.7402V69.8248Z" fill="#EF3800"/>
<path d="M3.47019 91.3262L0 101.463V107H49.3203L53.709 100.312L49.3203 89.2363L3.47019 91.3262Z" fill="#F6F6F6"/>
<path d="M76.2793 91.3262L49.3203 89.2363V107H82.9668L76.2793 91.3262Z" fill="#E8E8E8"/>
<path d="M8.8354 75.6523L3.46973 91.3262H49.3199L53.4995 82.9668L49.3199 75.6523H8.8354Z" fill="#FF5252"/>
<path d="M71.0547 75.6523H49.3203V91.3262H76.2793L71.0547 75.6523Z" fill="#D42F2F"/>
<path d="M58.9336 82.9668C58.9336 96.2187 69.7149 107 82.9668 107L87.1465 82.7578L82.9668 58.9336C69.7149 58.9336 58.9336 69.7149 58.9336 82.9668Z" fill="#FFDD46"/>
<path d="M82.9668 58.9336V107C96.2187 107 107 96.2187 107 82.9668C107 69.7149 96.2187 58.9336 82.9668 58.9336Z" fill="#FFB54C"/>
<path d="M79.3442 85.5694L74.7338 80.959L70.3008 85.3924L79.3442 94.4358L82.9665 90.8134L84.6384 85.4745L82.9665 81.9471L79.3442 85.5694Z" fill="#2EE66B"/>
<path d="M91.1995 73.7141L82.9668 81.9468V90.8132L95.6325 78.1473L91.1995 73.7141Z" fill="#24B383"/>
</svg>
