<svg width="75" height="75" viewBox="0 0 75 75" fill="none" xmlns="http://www.w3.org/2000/svg">
<path fill-rule="evenodd" clip-rule="evenodd" d="M26.9531 2.34375C25.3795 2.34375 24.0326 3.40334 23.5909 4.8409C22.1534 5.28263 21.0938 6.62965 21.0938 8.20313V11.7188H7.03125C4.45465 11.7188 2.34375 13.8296 2.34375 16.4063V29.2969C2.34375 31.8735 4.45465 33.9844 7.03125 33.9844H26.9531C26.9531 32.0367 28.5211 30.4688 30.4688 30.4688H38.6719C40.6195 30.4688 42.1875 32.0367 42.1875 33.9844H62.1094C64.686 33.9844 66.7969 31.8735 66.7969 29.2969V16.4063C66.7969 13.8296 64.686 11.7188 62.1094 11.7188H48.0469V8.20313C48.0469 6.62953 46.9873 5.28258 45.5497 4.8409C45.108 3.40336 43.761 2.34375 42.1875 2.34375H26.9531ZM23.7831 7.35621C24.3505 8.54297 25.5607 9.375 26.9531 9.375H42.1875C43.5799 9.375 44.79 8.54307 45.3575 7.35621C45.5731 7.56613 45.7031 7.86279 45.7031 8.20308V11.7187H23.4375V8.20308C23.4375 7.86279 23.5675 7.56613 23.7831 7.35621ZM60.9374 64.4535V45.7035C60.9374 43.7761 62.5256 42.1879 64.453 42.1879V35.9142C63.7176 36.1781 62.9306 36.3285 62.1093 36.3285H42.1874C42.1874 38.2762 40.6194 39.8441 38.6718 39.8441H30.4686C28.521 39.8441 26.953 38.2762 26.953 36.3285H7.03113C6.20982 36.3285 5.42273 36.1781 4.68738 35.9142V59.7666C4.68738 62.3432 6.79828 64.4541 9.37488 64.4541H28.1249V59.7666C28.1249 57.8392 29.7131 56.2509 31.6405 56.2509H38.6718C40.5991 56.2509 42.1874 57.8392 42.1874 59.7666V64.4541H44.5311V52.7353C44.5311 50.8079 46.1194 49.2197 48.0468 49.2197H55.078C57.0054 49.2197 58.5936 50.8079 58.5936 52.7353V64.4541L60.9374 64.4535ZM64.453 44.5316C63.7835 44.5316 63.2811 45.034 63.2811 45.7035V71.4847C63.2811 72.1458 63.7919 72.6566 64.453 72.6566H71.4843C72.1453 72.6566 72.6561 72.1458 72.6561 71.4847V45.7035C72.6561 45.034 72.1537 44.5316 71.4843 44.5316H64.453ZM48.0468 51.5629C47.3773 51.5629 46.8749 52.0652 46.8749 52.7347V71.4847C46.8749 72.1458 47.3857 72.6566 48.0468 72.6566H55.078C55.7391 72.6566 56.2499 72.1458 56.2499 71.4847V52.7347C56.2499 52.0652 55.7475 51.5629 55.078 51.5629H48.0468ZM31.6405 58.5941C30.971 58.5941 30.4686 59.0965 30.4686 59.766V71.4847C30.4686 72.1458 30.9794 72.6566 31.6405 72.6566H38.6718C39.3328 72.6566 39.8436 72.1458 39.8436 71.4847V59.766C39.8436 59.0965 39.3413 58.5941 38.6718 58.5941H31.6405Z" fill="white"/>
</svg>
