<svg width="75" height="75" viewBox="0 0 75 75" fill="none" xmlns="http://www.w3.org/2000/svg">
<path d="M64.7724 52.8939C64.7724 56.6599 61.7199 59.7123 57.9546 59.7123C54.1887 59.7123 51.1362 56.6599 51.1362 52.8939C51.1362 49.1286 54.1887 46.0762 57.9546 46.0762C61.7199 46.0762 64.7724 49.1286 64.7724 52.8939Z" fill="white"/>
<path d="M34.0905 15.3943H22.1591C21.5598 15.393 21.0043 15.7083 20.6972 16.2233L13.0117 29.0304H34.0905V15.3943Z" fill="white"/>
<path d="M50.8933 16.2233C50.5862 15.7083 50.0307 15.393 49.4314 15.3943H37.5V29.0304H58.5781L50.8933 16.2233Z" fill="white"/>
<path d="M73.7083 35.8989L60.6239 32.4395H1.70475C0.763425 32.4395 0 33.2029 0 34.1442V51.1899C0 52.1312 0.763425 52.894 1.70475 52.894H6.81839C6.81839 47.246 11.3971 42.6667 17.0457 42.6667C22.6936 42.6667 27.2729 47.246 27.2729 52.894H47.7275C47.7275 47.246 52.3062 42.6667 57.9548 42.6667C63.6027 42.6667 68.182 47.246 68.182 52.894H73.2957C74.237 52.894 74.9998 52.1312 74.9998 51.1899V37.5531C74.9998 36.7709 74.4673 36.0887 73.7083 35.8989Z" fill="white"/>
<path d="M23.8632 52.8939C23.8632 56.6599 20.8108 59.7123 17.0454 59.7123C13.2795 59.7123 10.2271 56.6599 10.2271 52.8939C10.2271 49.1286 13.2795 46.0762 17.0454 46.0762C20.8108 46.0762 23.8632 49.1286 23.8632 52.8939Z" fill="white"/>
</svg>
