<svg width="86" height="81" viewBox="0 0 86 81" fill="none" xmlns="http://www.w3.org/2000/svg">
<path d="M10.2177 15.3267V24.693H0V22.3514C0 18.4784 3.43827 15.3267 7.66331 15.3267H10.2177Z" fill="#D42F2F"/>
<path d="M67.9488 15.3267H63.0103V27.6732H75.3567V22.7346C75.3567 18.6499 72.0335 15.3267 67.9488 15.3267Z" fill="#D42F2F"/>
<path d="M55.2618 0C53.8981 0 52.7925 1.12639 52.7925 2.51576V27.6734H65.1389V0H55.2618Z" fill="#3A7D66"/>
<path d="M45.2143 0C43.7565 0 42.5747 1.12639 42.5747 2.51576V27.6734H55.7726V0H45.2143Z" fill="#24B383"/>
<path d="M10.2188 0V29.8021H45.5551V0H10.2188Z" fill="#2EE66B"/>
<path d="M63.9046 44.974L56.361 52.5794L63.9046 60.1847H80.4652V72.8603C80.4652 77.0534 77.0807 80.4656 72.9217 80.4656H7.54406C3.38504 80.4656 0.000488281 77.0534 0.000488281 72.8603V24.6931H72.9217C77.0807 24.6931 80.4652 28.1054 80.4652 32.2985V44.974H63.9046Z" fill="#FF5252"/>
<path d="M80.4652 60.3393V72.9181C80.4652 77.0792 77.0807 80.4654 72.9217 80.4654H7.54406C3.38504 80.4654 0.000488281 77.0792 0.000488281 72.9181V52.792H56.361L63.9046 60.3393H80.4652Z" fill="#D42F2F"/>
<path d="M61.9705 40.02L49.3862 52.5795L61.9705 65.1389H85.9998V40.02H61.9705Z" fill="#FFDD46"/>
<path d="M85.9998 52.792V65.1386H61.9705L49.3862 52.792H85.9998Z" fill="#FFB54C"/>
<path d="M65.1387 50.2375H70.2475V55.3465H65.1387V50.2375Z" fill="#FF5252"/>
<path d="M65.1387 52.792H70.2475V55.3465H65.1387V52.792Z" fill="#D42F2F"/>
<path d="M25.1196 20.01H30.2285V24.6932H25.1196V20.01Z" fill="#24B383"/>
</svg>
