<svg width="58" height="58" viewBox="0 0 58 58" fill="none" xmlns="http://www.w3.org/2000/svg">
<path d="M29 57.9999C12.9862 57.9999 0 45.0137 0 29C0 12.9862 12.9862 0 29 0C45.0138 0 58 12.9862 58 29C58 45.0137 45.0138 57.9999 29 57.9999Z" fill="#3B579D"/>
<path d="M36.54 57.9998V35.5364H44.08L45.211 26.7843H36.54V21.1931C36.54 18.6585 37.2418 16.9301 40.8784 16.9301H45.5126V9.10587C44.7122 9.00147 41.9572 8.76367 38.7556 8.76367C32.074 8.76367 27.4978 12.8411 27.4978 20.3347V26.7901H19.9404V35.5422H27.4978V57.9998H36.54Z" fill="white"/>
</svg>
