<svg width="75" height="75" viewBox="0 0 75 75" fill="none" xmlns="http://www.w3.org/2000/svg">
<path d="M74.9998 39.4038C74.9998 41.5035 73.2957 43.2076 71.196 43.2076C71.1864 43.2076 71.1731 43.2076 71.156 43.2076H64.1075V43.6812C64.1075 44.073 64.0315 44.44 63.9192 44.7976V63.4382C63.9192 65.5379 62.2151 67.2421 60.1154 67.2421H47.6256C45.5259 67.2421 43.8217 65.5379 43.8217 63.4382V52.7152C43.8217 49.2195 40.9765 46.3762 37.4827 46.3762C33.987 46.3762 31.1417 49.2195 31.1417 52.7152V63.4382C31.1417 65.5379 29.4376 67.2421 27.3379 67.2421H14.8461C12.7464 67.2421 11.0423 65.5379 11.0423 63.4382V43.2076H3.80551C2.20029 43.2076 0.766251 42.2034 0.224206 40.6933C-0.315937 39.1812 0.142424 37.4942 1.37867 36.471L35.0558 8.63083C36.4632 7.46876 38.4945 7.46876 39.9019 8.63083L50.3187 17.2389V17.0525C50.3187 14.9528 52.0228 13.2487 54.1225 13.2487H60.3037C62.4034 13.2487 64.1075 14.9528 64.1075 17.0525V28.637L73.269 36.2124C74.3094 36.8932 74.9998 38.0686 74.9998 39.4038Z" fill="white"/>
</svg>
