<svg width="58" height="58" viewBox="0 0 58 58" fill="none" xmlns="http://www.w3.org/2000/svg">
<path d="M29 58C45.0163 58 58 45.0163 58 29C58 12.9837 45.0163 0 29 0C12.9837 0 0 12.9837 0 29C0 45.0163 12.9837 58 29 58Z" fill="url(#paint0_radial_189_765)"/>
<path d="M41.0399 19.2869C41.0299 19.7119 40.8918 20.1246 40.6429 20.4733C40.3941 20.8219 40.0455 21.0911 39.6409 21.247C39.2362 21.4029 38.7935 21.4386 38.3682 21.3498C37.9429 21.2609 37.5538 21.0513 37.2498 20.7473C36.9458 20.4432 36.7402 20.0583 36.659 19.6406C36.5778 19.223 36.6244 18.7912 36.7931 18.3993C36.9618 18.0075 37.245 17.673 37.6073 17.4377C37.9695 17.2024 38.3948 17.0769 38.8297 17.0768C39.1233 17.0799 39.4135 17.1396 39.6835 17.2524C39.9535 17.3652 40.1981 17.5289 40.4034 17.7342C40.6086 17.9394 40.7705 18.1822 40.8797 18.4486C40.9889 18.715 41.0434 18.9999 41.0399 19.2869Z" fill="white"/>
<path d="M47.0621 20.4848C46.8947 15.1463 43.0279 11.1945 37.6896 11.0021C34.725 10.8959 31.7565 10.8437 28.7841 10.8456C25.8411 10.8456 22.8991 10.8978 19.958 11.0021C15.0529 11.1715 11.6238 14.4673 10.7441 19.312C10.5972 20.1733 10.4959 21.0346 10.374 21.8959V36.0999C10.4416 36.5607 10.5414 37.0186 10.5723 37.4808C10.9291 42.8294 14.6197 46.7913 19.958 46.9908C22.8951 47.1028 25.8372 47.1578 28.7841 47.1559C31.7536 47.1559 34.7226 47.1023 37.6911 46.9951C43.0294 46.8028 46.8947 42.8495 47.0621 37.5095C47.2383 31.8413 47.2383 26.1664 47.0621 20.4848ZM43.8268 36.9023C43.7269 41.1283 41.1261 43.649 36.8951 43.8112C34.1959 43.9117 31.4907 43.8299 28.7885 43.8299C26.1216 43.8299 23.4532 43.9103 20.7907 43.8112C16.592 43.6562 13.9823 41.1829 13.8678 37.0028C13.7219 31.6686 13.7219 26.332 13.8678 20.993C13.9823 16.8143 16.592 14.2822 20.7892 14.1932C23.4542 14.1376 26.1206 14.1094 28.7885 14.1085C31.4937 14.1085 34.1973 14.1367 36.8995 14.1932C41.1276 14.2836 43.7313 16.8674 43.8312 21.0935C43.9497 26.3616 43.9482 31.6313 43.8268 36.9023Z" fill="white"/>
<path d="M28.7841 19.6191C23.603 19.6191 19.4014 23.8193 19.4014 29.0014C19.4014 34.1834 23.603 38.3836 28.7841 38.3836C33.9653 38.3836 38.1669 34.1834 38.1669 29.0014C38.1669 23.8193 33.9653 19.6191 28.7841 19.6191ZM28.7841 35.1524C25.3858 35.1524 22.6322 32.3991 22.6322 29.0014C22.6322 25.6036 25.3858 22.849 28.7841 22.849C32.1824 22.849 34.936 25.6036 34.936 29.0014C34.936 32.3991 32.1824 35.1524 28.7841 35.1524Z" fill="white"/>
<path d="M38.1669 29.0071C38.1669 34.1892 33.9653 38.3894 28.7842 38.3894V35.1524C32.1825 35.1524 34.9361 32.3991 34.9361 29.0014C34.9361 25.6036 32.1825 22.849 28.7842 22.849V19.6191C33.9653 19.6191 38.1669 23.8193 38.1669 29.0071Z" fill="white"/>
<path d="M38.7135 21.422C38.2597 21.4322 37.8131 21.3101 37.4307 21.0712C37.0482 20.8322 36.7473 20.4873 36.5663 20.0804C36.3854 19.6736 36.3325 19.2232 36.4146 18.7869C36.4966 18.3505 36.7099 17.948 37.027 17.6306C37.3442 17.3133 37.7509 17.0955 38.1953 17.0051C38.6396 16.9147 39.1015 16.9558 39.5219 17.1231C39.9422 17.2904 40.3021 17.5764 40.5554 17.9445C40.8087 18.3126 40.9441 18.7462 40.9442 19.1898C40.9477 19.4796 40.8928 19.7671 40.7826 20.0361C40.6724 20.3051 40.509 20.5502 40.3019 20.7575C40.0947 20.9648 39.8478 21.1302 39.5753 21.2442C39.3027 21.3582 39.0099 21.4186 38.7135 21.422Z" fill="white"/>
<path d="M47.0616 37.5095C46.8942 42.8494 43.0289 46.8027 37.6906 46.9951C34.7251 47.1013 31.7561 47.1549 28.7837 47.1558V43.8298C31.4859 43.8298 34.191 43.9117 36.8903 43.8112C41.1212 43.6533 43.7221 41.1283 43.822 36.9023C43.9434 31.6389 43.9434 26.3692 43.822 21.0934C43.7221 16.8674 41.1183 14.2835 36.8903 14.1931C34.1881 14.1376 31.4844 14.1094 28.7793 14.1084V10.8456C31.7488 10.8456 34.7173 10.8977 37.6848 11.002C43.0231 11.1944 46.8898 15.1463 47.0572 20.4848C47.2364 26.1568 47.2379 31.8317 47.0616 37.5095Z" fill="white"/>
<defs>
<radialGradient id="paint0_radial_189_765" cx="0" cy="0" r="1" gradientUnits="userSpaceOnUse" gradientTransform="translate(11.8685 7.30102) scale(63.8601 63.8391)">
<stop stop-color="#FAE100"/>
<stop offset="0.05" stop-color="#FADC04"/>
<stop offset="0.12" stop-color="#FBCE0E"/>
<stop offset="0.18" stop-color="#FCB720"/>
<stop offset="0.25" stop-color="#FE9838"/>
<stop offset="0.31" stop-color="#FF7950"/>
<stop offset="0.49" stop-color="#FF1C74"/>
<stop offset="1" stop-color="#6C1CD1"/>
</radialGradient>
</defs>
</svg>
