<svg width="21" height="22" viewBox="0 0 21 22" fill="none" xmlns="http://www.w3.org/2000/svg">
<path d="M18.7598 14.6246L15.2482 13.5096C14.8842 13.3928 14.4955 13.3764 14.123 13.4622C13.7505 13.548 13.4081 13.7328 13.1319 13.997L12.2306 14.8983C12.1079 15.0178 11.9493 15.0937 11.7792 15.1142C11.6091 15.1347 11.437 15.0987 11.2893 15.0118C10.5709 14.5686 9.87977 14.0826 9.21978 13.5564C8.65946 13.1096 8.15112 12.6012 7.70432 12.0409C7.16894 11.3816 6.67401 10.6904 6.22225 9.97125C6.13532 9.82361 6.09933 9.65149 6.11984 9.48138C6.14035 9.31128 6.21621 9.15264 6.33574 9.0299L7.237 8.09523C7.50181 7.82074 7.68751 7.47978 7.77447 7.10841C7.86143 6.73705 7.84642 6.34909 7.73103 5.98555L6.60278 2.4672C6.44056 1.96001 6.09422 1.532 5.63205 1.26755C5.16988 1.00309 4.6254 0.921364 4.10596 1.03849L2.43696 1.41903C2.0931 1.49944 1.77433 1.66333 1.50886 1.89622C1.24338 2.1291 1.03936 2.4238 0.914836 2.75427C-1.83567 9.99795 4.35965 15.8129 4.88705 16.3403C5.29429 16.7943 9.27986 21.0137 14.6874 21.0137C15.9773 21.0253 17.2582 20.7989 18.466 20.3461C18.7965 20.2215 19.0912 20.0175 19.3241 19.752C19.5569 19.4865 19.7208 19.1678 19.8012 18.8239L20.1818 17.1548C20.3086 16.6314 20.2324 16.0794 19.9685 15.6099C19.7047 15.1405 19.2728 14.7884 18.7598 14.6246Z" fill="#DF2121"/>
</svg>
