<svg width="26" height="35" viewBox="0 0 26 35" fill="none" xmlns="http://www.w3.org/2000/svg">
<path d="M12.949 0.810059C6.02599 0.810059 0.431641 6.4917 0.431641 13.5227C0.431641 20.2697 11.6203 33.2664 12.1098 33.8346C12.3196 34.0476 12.5994 34.1897 12.949 34.1897C13.2986 34.1897 13.5784 34.0476 13.7882 33.8346C14.2777 33.2664 25.4664 20.2697 25.4664 13.5227C25.4664 6.4917 19.872 0.810059 12.949 0.810059ZM17.914 13.5227C17.914 16.2925 15.6762 18.5652 12.949 18.5652C10.2218 18.5652 7.98401 16.2925 7.98401 13.5227C7.98401 10.7529 10.2218 8.48027 12.949 8.48027C15.6762 8.48027 17.914 10.7529 17.914 13.5227Z" fill="#2B2B2B"/>
</svg>
