<svg width="63" height="81" viewBox="0 0 63 81" fill="none" xmlns="http://www.w3.org/2000/svg">
<g filter="url(#filter0_di_550_622)">
<path d="M29.4222 1.11475C13.9146 1.11475 1.3833 13.8416 1.3833 29.5911C1.3833 44.7043 26.446 73.817 27.5425 75.0897C28.0124 75.5669 28.639 75.8851 29.4222 75.8851C30.2054 75.8851 30.832 75.5669 31.3019 75.0897C32.3984 73.817 57.4611 44.7043 57.4611 29.5911C57.4611 13.8416 44.9297 1.11475 29.4222 1.11475ZM40.5438 29.5911C40.5438 35.7955 35.5312 40.8862 29.4222 40.8862C23.3132 40.8862 18.3006 35.7955 18.3006 29.5911C18.3006 23.3868 23.3132 18.296 29.4222 18.296C35.5312 18.296 40.5438 23.3868 40.5438 29.5911Z" fill="#FF0000"/>
</g>
<defs>
<filter id="filter0_di_550_622" x="0.383301" y="-1.88525" width="62.0776" height="82.7705" filterUnits="userSpaceOnUse" color-interpolation-filters="sRGB">
<feFlood flood-opacity="0" result="BackgroundImageFix"/>
<feColorMatrix in="SourceAlpha" type="matrix" values="0 0 0 0 0 0 0 0 0 0 0 0 0 0 0 0 0 0 127 0" result="hardAlpha"/>
<feOffset dx="2" dy="2"/>
<feGaussianBlur stdDeviation="1.5"/>
<feComposite in2="hardAlpha" operator="out"/>
<feColorMatrix type="matrix" values="0 0 0 0 0 0 0 0 0 0 0 0 0 0 0 0 0 0 0.4 0"/>
<feBlend mode="normal" in2="BackgroundImageFix" result="effect1_dropShadow_550_622"/>
<feBlend mode="normal" in="SourceGraphic" in2="effect1_dropShadow_550_622" result="shape"/>
<feColorMatrix in="SourceAlpha" type="matrix" values="0 0 0 0 0 0 0 0 0 0 0 0 0 0 0 0 0 0 127 0" result="hardAlpha"/>
<feOffset dy="-3"/>
<feGaussianBlur stdDeviation="3.5"/>
<feComposite in2="hardAlpha" operator="arithmetic" k2="-1" k3="1"/>
<feColorMatrix type="matrix" values="0 0 0 0 1 0 0 0 0 1 0 0 0 0 1 0 0 0 0.5 0"/>
<feBlend mode="normal" in2="shape" result="effect2_innerShadow_550_622"/>
</filter>
</defs>
</svg>
