<svg width="75" height="75" viewBox="0 0 75 75" fill="none" xmlns="http://www.w3.org/2000/svg">
<path fill-rule="evenodd" clip-rule="evenodd" d="M11.1509 9.79204H14.3513V63.0105C14.3513 65.3525 16.2572 67.2586 18.5992 67.2586H58.5976V70.459C58.5976 71.6692 57.6106 72.6562 56.4003 72.6562H11.1509C9.94063 72.6562 8.95361 71.6692 8.95361 70.459V11.9893C8.95376 10.7792 9.94077 9.79204 11.1509 9.79204ZM18.5993 2.34375C17.3891 2.34375 16.4021 3.33076 16.4021 4.54102V63.0107C16.4021 64.221 17.3891 65.208 18.5993 65.208H63.8489C65.0592 65.208 66.0462 64.221 66.0462 63.0107V14.6164H58.0216C55.6796 14.6164 53.7736 12.7104 53.7736 10.3685V2.34375H18.5993ZM58.0215 12.5656H65.8556C65.7491 12.3322 65.5979 12.1173 65.4025 11.9219L56.4679 2.98726C56.2725 2.79185 56.0577 2.64067 55.8244 2.53418V10.3683C55.8242 11.5786 56.8114 12.5656 58.0215 12.5656ZM25.9566 58.2056H56.4915C57.0578 58.2056 57.5168 57.7465 57.5168 57.1802C57.5168 56.6139 57.0578 56.1548 56.4915 56.1548H25.9566C25.3903 56.1548 24.9312 56.6139 24.9312 57.1802C24.9312 57.7465 25.3903 58.2056 25.9566 58.2056ZM25.9566 45.6688H56.4915C57.0578 45.6688 57.5168 45.2098 57.5168 44.6435C57.5168 44.0771 57.0578 43.6181 56.4915 43.6181H25.9566C25.3903 43.6181 24.9312 44.0771 24.9312 44.6435C24.9312 45.2096 25.3903 45.6688 25.9566 45.6688ZM25.9566 51.9372H56.4915C57.0578 51.9372 57.5168 51.4781 57.5168 50.9118C57.5168 50.3455 57.0578 49.8864 56.4915 49.8864H25.9566C25.3903 49.8864 24.9312 50.3455 24.9312 50.9118C24.9312 51.4781 25.3903 51.9372 25.9566 51.9372ZM31.4366 26.3323V36.0064C31.4366 37.0415 32.2836 37.8886 33.3188 37.8886H38.1406V29.8638C38.1406 28.4996 39.2532 27.387 40.6174 27.387H41.831C43.1951 27.387 44.3078 28.4996 44.3078 29.8638V37.8886H49.1294C50.1645 37.8886 51.0116 37.0416 51.0116 36.0064V26.3323L41.2241 19.3137L31.4366 26.3323ZM28.9473 25.594L41.2241 16.7902L53.501 25.594C54.425 26.2559 55.7107 26.0435 56.3725 25.1194C57.0343 24.1954 56.8219 22.9097 55.8979 22.2479L42.459 12.6107C41.7597 12.086 40.774 12.0485 40.0256 12.5846L26.5502 22.2479C25.6262 22.9099 25.4138 24.1954 26.0756 25.1194C26.7375 26.0435 28.0232 26.2559 28.9473 25.594Z" fill="white"/>
</svg>
