<svg width="26" height="26" viewBox="0 0 26 26" fill="none" xmlns="http://www.w3.org/2000/svg">
<path d="M25.2066 22.9666L18.0534 15.8093C19.5802 13.8383 20.2986 11.359 20.0621 8.87655C19.8256 6.39409 18.652 4.09525 16.7805 2.44842C14.909 0.801589 12.4804 -0.0693058 9.98947 0.0131793C7.49855 0.0956645 5.13279 1.12532 3.3742 2.89236C1.61561 4.6594 0.596526 7.03085 0.524592 9.52353C0.452658 12.0162 1.33328 14.4425 2.98704 16.3082C4.6408 18.1738 6.94324 19.3383 9.42525 19.5645C11.9073 19.7906 14.3821 19.0614 16.3454 17.5254L23.4954 24.6787C23.7229 24.9032 24.0298 25.0286 24.3493 25.0276C24.6688 25.0265 24.9749 24.899 25.2008 24.673C25.4268 24.4469 25.5541 24.1406 25.5552 23.821C25.5563 23.5013 25.431 23.1942 25.2066 22.9666ZM2.96431 9.81846C2.96479 8.36191 3.39688 6.9382 4.20596 5.72735C5.01504 4.51649 6.16478 3.57286 7.5098 3.01575C8.85482 2.45865 10.3347 2.31309 11.7624 2.59748C13.1901 2.88188 14.5015 3.58345 15.5307 4.61349C16.5599 5.64354 17.2608 6.95581 17.5447 8.38439C17.8287 9.81297 17.6829 11.2937 17.1258 12.6394C16.5687 13.9851 15.6254 15.1352 14.415 15.9445C13.2047 16.7538 11.7817 17.1858 10.326 17.186C8.37388 17.1841 6.50227 16.4072 5.12205 15.0259C3.74183 13.6446 2.9658 11.7717 2.96431 9.81846Z" fill="white"/>
</svg>
