<svg width="75" height="75" viewBox="0 0 75 75" fill="none" xmlns="http://www.w3.org/2000/svg">
<path fill-rule="evenodd" clip-rule="evenodd" d="M8.20333 59.6333V34.9243C7.35958 34.9993 6.51349 35.0814 5.66505 35.1692C5.66388 35.1692 5.66387 35.1692 5.66387 35.1692C4.44278 35.297 3.51583 36.327 3.51583 37.554C3.51583 41.522 3.51584 55.1567 3.51701 60.9282C3.51701 61.9196 3.95177 62.8618 4.70528 63.5064C5.45997 64.1509 6.45723 64.4333 7.43692 64.2786C16.8811 62.8337 27.0705 62.386 37.294 64.2095C37.4522 64.2376 37.608 64.2317 37.7545 64.1989C47.9627 62.386 58.1346 62.836 67.5682 64.2798C68.5432 64.4333 69.5404 64.1509 70.2951 63.5064C71.0486 62.8618 71.4834 61.9196 71.4834 60.9282C71.4846 55.1579 71.4846 41.522 71.4846 37.554C71.4846 37.029 71.3147 36.5392 71.024 36.1419C69.9295 37.1989 68.4389 37.8505 66.7971 37.8505V59.6333C66.7971 60.0235 66.6037 60.3868 66.2803 60.6048C65.958 60.8228 65.5479 60.8661 65.1869 60.7208C60.36 58.7731 53.5549 58.3489 47.6861 59.3673C45.3189 59.7774 43.1029 60.4185 41.2444 61.3032C39.6377 62.0673 38.9252 62.5653 37.7545 62.8278C37.608 62.8607 37.4522 62.8653 37.294 62.8372C36.3694 62.672 35.3358 62.0556 33.7596 61.3044C31.8998 60.4196 29.6826 59.7786 27.3143 59.3673C21.4455 58.3489 14.6404 58.7731 9.81348 60.7208C9.45254 60.8661 9.04239 60.8228 8.72012 60.6048C8.39668 60.3868 8.20333 60.0235 8.20333 59.6333ZM12.1783 32.0685C11.2443 32.1962 10.5483 32.9942 10.5483 33.9376C10.5471 39.5825 10.5471 57.9692 10.5471 57.9692C15.5639 56.3755 22.0443 56.0743 27.715 57.0587C30.9963 57.6271 34.0033 58.6313 36.3283 60.0353V39.2169C31.5565 37.0595 27.6752 37.1556 23.6135 37.8048C23.2748 37.8587 22.9291 37.7614 22.6678 37.5388C22.4064 37.3161 22.2565 36.9903 22.2565 36.647V31.6407C18.9576 31.4884 15.5193 31.6267 12.1783 32.0685ZM64.4533 37.3817C62.2748 36.4712 60.7385 34.3302 60.7115 31.8306C58.0291 31.5798 55.3174 31.5188 52.6936 31.6431V36.647C52.6936 36.9833 52.5494 37.3032 52.2975 37.5259C52.0455 37.7485 51.7092 37.8517 51.3764 37.8095C46.4744 37.1942 42.8065 37.1966 38.6721 39.1935C38.6721 43.3419 38.6721 60.0353 38.6721 60.0341C40.9971 58.6314 44.0041 57.6271 47.2854 57.0587C52.9561 56.0743 59.4365 56.3743 64.4533 57.9692V37.3817ZM24.6002 24.2778C32.2631 21.5263 42.9963 21.5696 50.3498 24.2696V35.3321C45.5182 34.8247 41.7354 35.0626 37.4815 37.1673C32.6569 34.9372 28.6631 34.7743 24.6002 35.2935V24.2778ZM22.2565 29.6204V23.4657C22.2565 22.9841 22.5506 22.5517 22.9994 22.3759C31.4569 19.0478 43.8846 19.1122 51.9611 22.3794C52.4041 22.5587 52.6936 22.9888 52.6936 23.4657V30.32L65.624 25.1274L65.6228 25.6395H65.624V26.0228C64.526 27.6786 63.0541 30.4185 63.0541 31.7638C63.0541 33.8298 64.7311 35.5067 66.7971 35.5067C67.4182 35.5067 68.0041 35.3556 68.5209 35.0872L68.7049 34.9841C69.8029 34.3313 70.54 33.1337 70.54 31.7638C70.54 30.4173 69.067 27.6774 67.969 26.0216V26.0122L67.9655 26.0064C67.9678 25.3946 67.969 24.7794 67.969 24.1853L70.7498 23.0685C71.208 22.8845 71.5022 22.4321 71.4834 21.9388C71.4658 21.4442 71.14 21.0153 70.6689 20.8653L67.9127 19.9864C67.5647 15.395 61.6689 13.6021 58.8846 17.106L37.8084 10.3841C37.5764 10.3103 37.3268 10.3103 37.0947 10.3853L4.33029 20.8853C3.85217 21.0388 3.52521 21.4782 3.51583 21.9786C3.50646 22.4802 3.817 22.9313 4.28809 23.1024L22.2565 29.6204ZM66.7971 28.554C67.0068 28.9091 67.2283 29.2993 67.4346 29.6954C67.8319 30.4571 68.2139 31.2282 68.2139 31.7438C68.2139 32.5255 67.5787 33.1606 66.7971 33.1606C66.0154 33.1606 65.3803 32.5255 65.3803 31.7438C65.3803 31.2282 65.7623 30.4571 66.1596 29.6954C66.3658 29.2993 66.5873 28.9091 66.7971 28.554ZM65.3041 19.1544C64.9584 18.4466 64.3291 17.9474 63.6189 17.7212C62.91 17.4962 62.1201 17.5431 61.4557 17.9263L65.3041 19.1544Z" fill="white"/>
</svg>
