<svg width="81" height="131" viewBox="0 0 81 131" fill="none" xmlns="http://www.w3.org/2000/svg">
<path d="M80.3101 9.43588V97.9235C80.3101 103.126 76.0765 107.359 70.8742 107.359H9.43591C4.23358 107.359 0 103.126 0 97.9235V9.43588C0 4.23357 4.23358 0 9.43591 0H70.8742C76.0765 0 80.3101 4.23357 80.3101 9.43588Z" fill="#F6F6F6"/>
<path d="M80.31 9.43588V97.9235C80.31 103.126 76.0764 107.359 70.8741 107.359H40.2598V0H70.8741C76.0764 0 80.31 4.23357 80.31 9.43588Z" fill="#E8E8E8"/>
<path d="M66.8899 23.4849C66.8899 25.2211 65.4808 26.6302 63.7446 26.6302H16.7747C15.0385 26.6302 13.6294 25.2211 13.6294 23.4849C13.6294 21.7487 15.0385 20.3396 16.7747 20.3396H63.7446C65.4808 20.3396 66.8899 21.7487 66.8899 23.4849Z" fill="#FF5252"/>
<path d="M66.8897 23.4849C66.8897 25.2211 65.4806 26.6302 63.7444 26.6302H40.0498V20.3396H63.7444C65.4806 20.3396 66.8897 21.7487 66.8897 23.4849Z" fill="#D42F2F"/>
<path d="M56.8249 40.2593C56.8249 41.9955 55.4158 43.4046 53.6796 43.4046H16.7747C15.0385 43.4046 13.6294 41.9955 13.6294 40.2593C13.6294 38.5231 15.0385 37.114 16.7747 37.114H53.6796C55.4158 37.114 56.8249 38.5231 56.8249 40.2593Z" fill="#FF5252"/>
<path d="M56.8248 40.2593C56.8248 41.9955 55.4157 43.4046 53.6795 43.4046H40.0498V37.114H53.6795C55.4157 37.114 56.8248 38.5231 56.8248 40.2593Z" fill="#D42F2F"/>
<path d="M46.7599 57.0349C46.7599 58.7711 45.3508 60.1802 43.6146 60.1802H16.7747C15.0385 60.1802 13.6294 58.7711 13.6294 57.0349C13.6294 55.2987 15.0385 53.8896 16.7747 53.8896H43.6146C45.3508 53.8896 46.7599 55.2987 46.7599 57.0349Z" fill="#FF5252"/>
<path d="M46.7598 57.0349C46.7598 58.7711 45.3507 60.1802 43.6145 60.1802H40.0498V53.8896H43.6145C45.3507 53.8896 46.7598 55.2987 46.7598 57.0349Z" fill="#D42F2F"/>
<path d="M12.8071 101.942C12.8071 117.683 25.6129 130.489 41.3536 130.489L46.3596 101.143L41.3536 73.396C25.6129 73.396 12.8071 86.2018 12.8071 101.942Z" fill="#FFDD46"/>
<path d="M41.354 73.396V130.489C57.0947 130.489 69.9005 117.683 69.9005 101.942C69.9005 86.2018 57.0947 73.396 41.354 73.396Z" fill="#FFB54C"/>
<path d="M32.3449 105.115L37.8145 99.8258V117.358H41.3534L42.106 102.429L41.3534 86.5581L27.4248 100.027L32.3449 105.115Z" fill="#2EE66B"/>
<path d="M44.8928 117.358V99.8258L50.3622 105.115L55.2823 100.027L41.354 86.5581V117.358H44.8928Z" fill="#24B383"/>
</svg>
