<svg width="58" height="58" viewBox="0 0 58 58" fill="none" xmlns="http://www.w3.org/2000/svg">
<circle cx="29" cy="29.0001" r="29" fill="black"/>
<path d="M44.7971 24.9705V18.195C35.9953 17.821 35.7121 9.77284 35.7121 9.01658V8.95959H28.9091V35.348C28.9083 36.4883 28.5502 37.5994 27.8857 38.5231C27.2212 39.4468 26.2842 40.1361 25.2079 40.493C24.1316 40.8499 22.9708 40.8561 21.8908 40.5109C20.8107 40.1656 19.8664 39.4864 19.1921 38.5699C18.5178 37.6535 18.1478 36.5463 18.135 35.4061C18.1221 34.2658 18.4669 33.1506 19.1203 32.2189C19.7737 31.2872 20.7024 30.5866 21.7744 30.2167C22.8464 29.8468 24.007 29.8265 25.0911 30.1586V23.1707C24.5699 23.1034 24.0449 23.0697 23.5195 23.0697C21.1061 23.0697 18.747 23.7898 16.7404 25.139C14.7337 26.4881 13.1698 28.4058 12.2462 30.6493C11.3227 32.8929 11.081 35.3616 11.5518 37.7434C12.0227 40.1251 13.1848 42.3129 14.8913 44.03C16.5978 45.7472 18.772 46.9166 21.139 47.3903C23.506 47.8641 25.9594 47.6209 28.189 46.6916C30.4187 45.7623 32.3244 44.1886 33.6652 42.1694C35.0059 40.1503 35.7216 37.7764 35.7216 35.348C35.7216 35.1758 35.7216 35.0049 35.7098 34.8351V21.841C38.8423 24.7247 44.7971 24.9705 44.7971 24.9705Z" fill="#00F6EF"/>
<path d="M46.6838 26.6629V19.9674C37.8808 19.598 37.5989 11.6489 37.5989 10.902V10.8457H30.7958V36.9091C30.7953 38.0354 30.4374 39.1329 29.7731 40.0454C29.1087 40.9579 28.1717 41.6389 27.0954 41.9916C26.0191 42.3443 24.8583 42.3506 23.7782 42.0098C22.698 41.6689 21.7536 40.9982 21.0791 40.093C20.4047 39.1878 20.0347 38.0943 20.0217 36.9681C20.0087 35.8418 20.3534 34.7402 21.0068 33.8199C21.6602 32.8996 22.589 32.2076 23.661 31.8422C24.733 31.4768 25.8936 31.4567 26.9778 31.7848V24.8817C26.4553 24.8167 25.9292 24.785 25.4027 24.7867C22.9893 24.7874 20.6303 25.4994 18.624 26.8326C16.6178 28.1657 15.0543 30.0602 14.1315 32.2765C13.2086 34.4927 12.9677 36.9312 13.4393 39.2835C13.9109 41.6358 15.0738 43.7963 16.7809 45.4918C18.488 47.1873 20.6627 48.3415 23.0299 48.8086C25.3971 49.2757 27.8505 49.0347 30.0798 48.116C32.3092 47.1973 34.2144 45.6422 35.5544 43.6474C36.8945 41.6526 37.6092 39.3076 37.6083 36.9091C37.6083 36.7391 37.6083 36.5702 37.5965 36.4025V23.5684C40.729 26.4167 46.6838 26.6629 46.6838 26.6629Z" fill="white"/>
<path d="M35.7988 10.8096C36.1257 12.59 37.0806 15.3735 39.8641 17.0022C37.7368 14.5244 37.6298 11.327 37.6298 10.866V10.8096H35.7988Z" fill="#FF004F"/>
<path d="M46.6825 26.6722V19.9575C46.0109 19.9329 45.3423 19.8542 44.6833 19.7223V25.0082C44.6833 25.0082 38.7483 24.7648 35.6285 21.9084V34.7757C35.6355 34.9439 35.6402 35.1132 35.6402 35.2837C35.6399 37.4841 35.0427 39.6432 33.9123 41.5309C32.7818 43.4187 31.1605 44.9644 29.2209 46.0035C27.2813 47.0425 25.0962 47.536 22.8984 47.4312C20.7005 47.3265 18.5722 46.6275 16.7402 45.4087C18.425 47.1487 20.591 48.3459 22.9606 48.847C25.3301 49.3481 27.7954 49.1302 30.0403 48.2212C32.2852 47.3122 34.2076 45.7536 35.561 43.7451C36.9145 41.7366 37.6374 39.3697 37.637 36.9477C37.637 36.7772 37.637 36.6079 37.6252 36.4397V23.5688C40.7474 26.4253 46.6825 26.6722 46.6825 26.6722Z" fill="#FF004F"/>
<path d="M25.0448 30.1446C23.7501 29.7497 22.3541 29.8581 21.1358 30.448C19.9175 31.038 18.9668 32.066 18.4737 33.3266C17.9806 34.5872 17.9815 35.9874 18.4761 37.2474C18.9708 38.5074 19.9228 39.5342 21.1418 40.1226C20.4757 39.2127 20.1127 38.1162 20.1044 36.9885C20.096 35.8608 20.4427 34.759 21.0954 33.8393C21.748 32.9196 22.6735 32.2286 23.7407 31.8641C24.8079 31.4997 25.9627 31.4802 27.0416 31.8086V24.8857C26.5209 24.8205 25.9965 24.7887 25.4717 24.7905C25.3271 24.7905 25.1848 24.7905 25.0413 24.7987L25.0448 30.1446Z" fill="#FF004F"/>
</svg>
