<svg width="21" height="22" viewBox="0 0 21 22" fill="none" xmlns="http://www.w3.org/2000/svg">
<path d="M10.0139 0.986328C8.03333 0.986328 6.09725 1.57363 4.45047 2.67397C2.8037 3.77431 1.52019 5.33827 0.762266 7.16807C0.00433896 8.99786 -0.19397 11.0113 0.192419 12.9538C0.578807 14.8963 1.53254 16.6806 2.933 18.0811C4.33347 19.4816 6.11778 20.4353 8.06028 20.8217C10.0028 21.2081 12.0162 21.0098 13.846 20.2518C15.6758 19.4939 17.2398 18.2104 18.3401 16.5636C19.4405 14.9169 20.0278 12.9808 20.0278 11.0002C20.0278 8.34437 18.9727 5.7973 17.0948 3.91933C15.2168 2.04136 12.6697 0.986328 10.0139 0.986328ZM15.2011 16.1741C15.076 16.2984 14.9068 16.3682 14.7304 16.3682C14.5541 16.3682 14.3849 16.2984 14.2598 16.1741L9.5399 11.5009C9.47474 11.4354 9.42388 11.3571 9.39056 11.2709C9.35723 11.1847 9.34216 11.0925 9.3463 11.0002V4.27088C9.3463 4.09383 9.41663 3.92402 9.54183 3.79882C9.66703 3.67363 9.83683 3.60329 10.0139 3.60329C10.1909 3.60329 10.3608 3.67363 10.486 3.79882C10.6111 3.92402 10.6815 4.09383 10.6815 4.27088V10.7198L15.2011 15.2261C15.2637 15.2881 15.3133 15.362 15.3472 15.4433C15.3811 15.5247 15.3986 15.6119 15.3986 15.7001C15.3986 15.7882 15.3811 15.8755 15.3472 15.9568C15.3133 16.0382 15.2637 16.112 15.2011 16.1741Z" fill="#DF2121"/>
</svg>
