<svg width="75" height="75" viewBox="0 0 75 75" fill="none" xmlns="http://www.w3.org/2000/svg">
<path d="M22.0351 19.3093C21.8824 19.3121 21.7293 19.3435 21.5834 19.4079C21.1141 19.6147 20.8319 20.1016 20.8888 20.6114C20.8888 20.6114 23.0127 40.6347 13.9268 57.5148H33.1648C33.6059 49.2097 33.2168 31.2195 22.9337 19.7036C22.7008 19.4413 22.3708 19.3031 22.0351 19.3093Z" fill="white"/>
<path d="M9.64734 1.92829C7.41523 1.72613 4.85192 1.84831 1.905 2.36082C1.00082 2.51489 0.616049 3.601 1.2216 4.28991L8.19403 12.2572C8.47235 12.5724 8.89819 12.7143 9.30996 12.6291L12.8827 11.9111V15.4666C12.8829 15.8715 13.0923 16.2477 13.4363 16.4614L21.4036 21.4442C22.1231 21.8941 23.0674 21.454 23.1856 20.6137C23.1856 20.6137 24.0138 15.1271 21.7236 10.008C20.5786 7.44846 18.5972 4.95557 15.3827 3.42485C13.7755 2.65949 11.8794 2.13044 9.64734 1.92829Z" fill="white"/>
<path d="M19.0162 18.7278C17.0129 18.5307 14.3379 18.5317 11.6459 19.316C8.95379 20.1003 6.20545 21.7217 4.24955 24.6967C2.29365 27.6717 1.14213 31.9276 1.35158 37.9063C1.37949 38.8232 2.40234 39.3542 3.16822 38.8492L12.0178 33.0273C12.3681 32.7977 12.5693 32.3987 12.5455 31.9806L12.3293 28.3386L15.8414 28.8231C16.2425 28.8806 16.6449 28.7269 16.9054 28.4165L22.9263 21.2019C23.4687 20.5506 23.1618 19.5568 22.3467 19.3247C22.3467 19.3247 21.0195 18.9248 19.0162 18.7278Z" fill="white"/>
<path d="M38.8779 13.3732C35.5422 12.1285 32.3695 12.4414 29.7342 13.3991C24.4634 15.3146 21.1008 19.7314 21.1008 19.7314C20.5864 20.3991 20.924 21.3753 21.741 21.5827L30.8674 23.8491C31.2598 23.9472 31.6751 23.8361 31.966 23.555L34.518 21.0809L36.4903 24.1519C36.7162 24.5027 37.1116 24.707 37.5284 24.6882L48.1082 24.1519C49.017 24.1026 49.5251 23.0813 49.0165 22.3266C45.6532 17.3793 42.2136 14.6179 38.8779 13.3732Z" fill="white"/>
<path d="M7.03311 59.7674C7.03311 59.7674 5.61248 59.751 4.16109 60.4767C2.70971 61.2024 1.16797 62.76 1.16797 65.6239V70.3125C1.17026 70.9599 1.69705 71.4828 2.34446 71.4803H72.657C73.301 71.4781 73.8225 70.9565 73.8248 70.3125V65.6239C73.8248 62.7192 72.2917 61.2024 70.8403 60.4767C69.3889 59.751 67.9683 59.7674 67.9683 59.7674H7.03311Z" fill="white"/>
<path d="M65.7261 37.5591C65.7261 37.5591 66.6617 37.573 67.5554 38.0199C68.4492 38.4667 69.2541 39.3152 69.2541 41.078V52.8174C69.2541 54.5824 68.4492 55.4287 67.5554 55.8755C66.6617 56.3224 65.7261 56.334 65.7261 56.334V37.5591Z" fill="white"/>
<path d="M46.9512 37.5591H63.3787V56.334H46.9512V37.5591Z" fill="white"/>
<path d="M44.6037 37.5591V56.334C44.6037 56.334 43.6681 56.3223 42.7744 55.8755C41.8806 55.4287 41.0757 54.5768 41.0757 52.8174V41.078C41.0757 39.3226 41.8806 38.4667 42.7744 38.0199C43.6681 37.573 44.6037 37.5591 44.6037 37.5591Z" fill="white"/>
<path d="M52.7339 28.1233C52.7339 28.1233 51.3219 28.107 49.8706 28.8327C48.4192 29.5584 46.8774 31.0655 46.8774 33.9885V35.1563H49.2218V33.9885C49.2218 32.1911 50.0249 31.381 50.9173 30.9348C51.8097 30.4886 52.7339 30.4676 52.7339 30.4676H57.4226C57.4226 30.4676 58.3469 30.4886 59.2392 30.9348C60.1316 31.381 60.9347 32.2055 60.9347 33.9885V35.1563H63.2791V33.9885C63.2791 31.0588 61.7373 29.5584 60.286 28.8327C58.8346 28.107 57.4226 28.1233 57.4226 28.1233H52.7339Z" fill="white"/>
</svg>
