<svg width="131" height="86" viewBox="0 0 131 86" fill="none" xmlns="http://www.w3.org/2000/svg">
<path d="M108.648 0L3.27911 0C1.44259 0 0 1.44258 0 3.27909L0 75.419C0 77.2551 1.44259 78.6981 3.27911 78.6981L108.648 78.6981C110.484 78.6981 111.927 77.2551 111.927 75.419L111.927 3.27909C111.927 1.44258 110.484 0 108.648 0Z" fill="#FED5D5"/>
<path d="M111.927 3.27909L111.927 75.419C111.927 77.2551 110.484 78.6981 108.648 78.6981H55.9634L55.9634 0L108.648 0C110.484 0 111.927 1.44258 111.927 3.27909Z" fill="#FFB5B5"/>
<path d="M105.368 24.2659L105.368 54.4335L87.4427 72.1406H24.4839L6.55811 54.4335L6.55811 24.2659L24.4839 6.55884L87.4427 6.55884L105.368 24.2659Z" fill="#F6F6F6"/>
<path d="M105.369 24.2659V54.4335L87.4428 72.1406H55.9634L55.9634 6.55884L87.4428 6.55884L105.369 24.2659Z" fill="#E8E8E8"/>
<path d="M88.7546 26.2532H62.5218C60.7093 26.2532 59.2427 24.7866 59.2427 22.9742C59.2427 21.1617 60.7093 19.6951 62.5218 19.6951H88.7546C90.5671 19.6951 92.0337 21.1617 92.0337 22.9742C92.0337 24.7866 90.5671 26.2532 88.7546 26.2532Z" fill="#D42F2F"/>
<path d="M88.7546 39.3702H62.5218C60.7093 39.3702 59.2427 37.9036 59.2427 36.0911C59.2427 34.2786 60.7093 32.812 62.5218 32.812H88.7546C90.5671 32.812 92.0337 34.2786 92.0337 36.0911C92.0337 37.9036 90.5671 39.3702 88.7546 39.3702Z" fill="#D42F2F"/>
<path d="M36.2885 19.6748C30.845 19.6748 26.4512 24.0686 26.4512 29.5121C26.4512 34.9551 30.845 39.3493 36.2885 39.3493C41.732 39.3493 46.1258 34.9551 46.1258 29.5121C46.1258 24.0686 41.732 19.6748 36.2885 19.6748Z" fill="#FF5252"/>
<path d="M36.2886 39.3496C27.2383 39.3496 19.8931 46.6948 19.8931 55.7451C19.8931 57.5811 21.3357 59.0241 23.1722 59.0241H49.405C51.2415 59.0241 52.6841 57.5811 52.6841 55.7451C52.6841 46.6948 45.3389 39.3496 36.2886 39.3496Z" fill="#FF5252"/>
<path d="M101.745 56.1494C101.76 56.1347 101.773 56.1216 101.787 56.1069C102.736 55.1844 104.255 55.1795 105.208 56.1118L112.706 63.4463C113.673 64.3917 113.69 65.9429 112.743 66.9095C112.734 66.9193 112.725 66.9275 112.716 66.9356C111.769 67.8761 110.237 67.8843 109.28 66.947L101.782 59.6125C100.816 58.6672 100.798 57.116 101.745 56.1494Z" fill="#FFB54C"/>
<path d="M101.745 56.1494C101.76 56.1347 101.773 56.1216 101.787 56.1069L112.716 66.9356C111.769 67.8761 110.237 67.8843 109.28 66.947L101.782 59.6125C100.816 58.6672 100.798 57.116 101.745 56.1494Z" fill="#FFDD46"/>
<path d="M91.488 65.2845C102.22 65.2845 110.92 56.5851 110.92 45.8538C110.92 35.1225 102.22 26.4231 91.488 26.4231C80.7561 26.4231 72.0562 35.1225 72.0562 45.8538C72.0562 56.5851 80.7561 65.2845 91.488 65.2845Z" fill="#CDCDCD"/>
<path d="M77.7473 32.1152L105.227 59.5951C97.6304 67.1886 85.343 67.1875 77.7473 59.5951C70.1728 52.019 70.1728 39.6914 77.7473 32.1152Z" fill="#F1F1F1"/>
<path d="M77.7468 59.595C85.3438 67.1885 97.6313 67.1873 105.227 59.595C112.801 52.0188 112.801 39.6912 105.227 32.1151C97.6317 24.5234 85.3477 24.521 77.7468 32.1151C70.1723 39.6912 70.1723 52.0188 77.7468 59.595ZM91.4869 31.3232C99.517 31.3232 106.019 37.8235 106.019 45.855C106.019 53.8851 99.5184 60.3869 91.4869 60.3869C83.4567 60.3869 76.9549 53.8866 76.9549 45.855C76.9549 37.7933 83.4845 31.3232 91.4869 31.3232Z" fill="#610606"/>
<path d="M77.7473 32.1152L81.2121 35.58C75.4741 41.3178 75.5907 50.5091 81.2121 56.1303C86.892 61.8103 96.0827 61.8102 101.763 56.1303L105.227 59.5951C97.6304 67.1886 85.343 67.1875 77.7473 59.5951C70.1728 52.019 70.1728 39.6914 77.7473 32.1152Z" fill="#961616"/>
<path d="M109.248 63.6151C112.245 60.618 117.1 60.6126 120.099 63.6151L128.413 71.9277C131.427 74.9412 131.394 79.8031 128.413 82.7808C125.42 85.7721 120.551 85.7721 117.56 82.7808L109.248 74.4667C106.248 71.4703 106.247 66.6121 109.248 63.6151Z" fill="#24B383"/>
<path d="M109.248 63.6142C109.275 63.5864 109.303 63.5587 109.331 63.5342L128.493 82.6966C125.694 85.668 120.675 85.8951 117.56 82.7799L109.248 74.4657C106.248 71.4694 106.247 66.6112 109.248 63.6142Z" fill="#2EE66B"/>
</svg>
